<?xml version="1.0" encoding="us-ascii" standalone="no"?><svg xmlns="http://www.w3.org/2000/svg" xmlns:xlink="http://www.w3.org/1999/xlink" contentStyleType="text/css" height="1155px" preserveAspectRatio="none" style="width:2067px;height:1155px;background:#FFFFFF;" version="1.1" viewBox="0 0 2067 1155" width="2067px" zoomAndPan="magnify"><defs/><g><!--cluster core--><g id="cluster_core"><path d="M1275.5,6 L1306.5,6 A3.75,3.75 0 0 1 1309,8.5 L1316,28.4883 L2057.5,28.4883 A2.5,2.5 0 0 1 2060,30.9883 L2060,435.92 A2.5,2.5 0 0 1 2057.5,438.42 L1275.5,438.42 A2.5,2.5 0 0 1 1273,435.92 L1273,8.5 A2.5,2.5 0 0 1 1275.5,6 " fill="none" style="stroke:#000000;stroke-width:1.5;"/><line style="stroke:#000000;stroke-width:1.5;" x1="1273" x2="1316" y1="28.4883" y2="28.4883"/><text fill="#000000" font-family="sans-serif" font-size="14" font-weight="bold" lengthAdjust="spacing" textLength="30" x="1277" y="21.5352">core</text></g><!--cluster entities--><g id="cluster_entities"><path d="M8.5,664.86 L64.5,664.86 A3.75,3.75 0 0 1 67,667.36 L74,687.3483 L866.5,687.3483 A2.5,2.5 0 0 1 869,689.8483 L869,985.78 A2.5,2.5 0 0 1 866.5,988.28 L8.5,988.28 A2.5,2.5 0 0 1 6,985.78 L6,667.36 A2.5,2.5 0 0 1 8.5,664.86 " fill="none" style="stroke:#000000;stroke-width:1.5;"/><line style="stroke:#000000;stroke-width:1.5;" x1="6" x2="74" y1="687.3483" y2="687.3483"/><text fill="#000000" font-family="sans-serif" font-size="14" font-weight="bold" lengthAdjust="spacing" textLength="55" x="10" y="680.3952">entities</text></g><!--cluster items--><g id="cluster_items"><path d="M895.5,864.54 L937.5,864.54 A3.75,3.75 0 0 1 940,867.04 L947,887.0283 L1463.5,887.0283 A2.5,2.5 0 0 1 1466,889.5283 L1466,1146.24 A2.5,2.5 0 0 1 1463.5,1148.74 L895.5,1148.74 A2.5,2.5 0 0 1 893,1146.24 L893,867.04 A2.5,2.5 0 0 1 895.5,864.54 " fill="none" style="stroke:#000000;stroke-width:1.5;"/><line style="stroke:#000000;stroke-width:1.5;" x1="893" x2="947" y1="887.0283" y2="887.0283"/><text fill="#000000" font-family="sans-serif" font-size="14" font-weight="bold" lengthAdjust="spacing" textLength="41" x="897" y="880.0752">items</text></g><!--cluster map--><g id="cluster_map"><path d="M630.5,281.71 L662.5,281.71 A3.75,3.75 0 0 1 665,284.21 L672,304.1983 L1246.5,304.1983 A2.5,2.5 0 0 1 1249,306.6983 L1249,629.36 A2.5,2.5 0 0 1 1246.5,631.86 L630.5,631.86 A2.5,2.5 0 0 1 628,629.36 L628,284.21 A2.5,2.5 0 0 1 630.5,281.71 " fill="none" style="stroke:#000000;stroke-width:1.5;"/><line style="stroke:#000000;stroke-width:1.5;" x1="628" x2="672" y1="304.1983" y2="304.1983"/><text fill="#000000" font-family="sans-serif" font-size="14" font-weight="bold" lengthAdjust="spacing" textLength="31" x="632" y="297.2452">map</text></g><!--cluster events--><g id="cluster_events"><path d="M1610.5,491.64 L1658.5,491.64 A3.75,3.75 0 0 1 1661,494.14 L1668,514.1283 L1926.5,514.1283 A2.5,2.5 0 0 1 1929,516.6283 L1929,794.33 A2.5,2.5 0 0 1 1926.5,796.83 L1610.5,796.83 A2.5,2.5 0 0 1 1608,794.33 L1608,494.14 A2.5,2.5 0 0 1 1610.5,491.64 " fill="none" style="stroke:#000000;stroke-width:1.5;"/><line style="stroke:#000000;stroke-width:1.5;" x1="1608" x2="1668" y1="514.1283" y2="514.1283"/><text fill="#000000" font-family="sans-serif" font-size="14" font-weight="bold" lengthAdjust="spacing" textLength="47" x="1612" y="507.1752">events</text></g><!--class GameContext--><g id="elem_GameContext"><rect codeLine="4" fill="#F1F1F1" height="163.418" id="GameContext" rx="2.5" ry="2.5" style="stroke:#181818;stroke-width:0.5;" width="228" x="1289" y="259"/><ellipse cx="1351.75" cy="275" fill="#ADD1B2" rx="11" ry="11" style="stroke:#181818;stroke-width:1.0;"/><path d="M1354.2231,281.1431 Q1353.6421,281.4419 1353.0029,281.5913 Q1352.3638,281.7407 1351.6582,281.7407 Q1349.1514,281.7407 1347.8315,280.0889 Q1346.5117,278.437 1346.5117,275.3159 Q1346.5117,272.1865 1347.8315,270.5347 Q1349.1514,268.8828 1351.6582,268.8828 Q1352.3638,268.8828 1353.0112,269.0322 Q1353.6587,269.1816 1354.2231,269.4805 L1354.2231,272.2031 Q1353.5923,271.6221 1352.9988,271.3523 Q1352.4053,271.0825 1351.7744,271.0825 Q1350.4297,271.0825 1349.7449,272.1492 Q1349.0601,273.2158 1349.0601,275.3159 Q1349.0601,277.4077 1349.7449,278.4744 Q1350.4297,279.541 1351.7744,279.541 Q1352.4053,279.541 1352.9988,279.2712 Q1353.5923,279.0015 1354.2231,278.4204 Z " fill="#000000"/><text fill="#000000" font-family="sans-serif" font-size="14" lengthAdjust="spacing" textLength="94" x="1372.25" y="280.291">GameContext</text><line style="stroke:#181818;stroke-width:0.5;" x1="1290" x2="1516" y1="291" y2="291"/><rect fill="none" height="6" style="stroke:#C82930;stroke-width:1.0;" width="6" x="1297" y="301.7441"/><text fill="#000000" font-family="sans-serif" font-size="14" lengthAdjust="spacing" textLength="91" x="1309" y="308.5352">player: Player</text><rect fill="none" height="6" style="stroke:#C82930;stroke-width:1.0;" width="6" x="1297" y="318.2324"/><text fill="#000000" font-family="sans-serif" font-size="14" lengthAdjust="spacing" textLength="138" x="1309" y="325.0234">currentRoom: Room</text><rect fill="none" height="6" style="stroke:#C82930;stroke-width:1.0;" width="6" x="1297" y="334.7207"/><text fill="#000000" font-family="sans-serif" font-size="14" lengthAdjust="spacing" textLength="63" x="1309" y="341.5117">score: int</text><rect fill="none" height="6" style="stroke:#C82930;stroke-width:1.0;" width="6" x="1297" y="351.209"/><text fill="#000000" font-family="sans-serif" font-size="14" lengthAdjust="spacing" textLength="202" x="1309" y="358">eventManager: EventManager</text><line style="stroke:#181818;stroke-width:0.5;" x1="1290" x2="1516" y1="364.9531" y2="364.9531"/><ellipse cx="1300" cy="378.6973" fill="#84BE84" rx="3" ry="3" style="stroke:#038048;stroke-width:1.0;"/><text fill="#000000" font-family="sans-serif" font-size="14" lengthAdjust="spacing" textLength="191" x="1309" y="382.4883">getInstance(): GameContext</text><ellipse cx="1300" cy="395.1855" fill="#84BE84" rx="3" ry="3" style="stroke:#038048;stroke-width:1.0;"/><text fill="#000000" font-family="sans-serif" font-size="14" lengthAdjust="spacing" textLength="149" x="1309" y="398.9766">setPlayer(Player): void</text><ellipse cx="1300" cy="411.6738" fill="#84BE84" rx="3" ry="3" style="stroke:#038048;stroke-width:1.0;"/><text fill="#000000" font-family="sans-serif" font-size="14" lengthAdjust="spacing" textLength="200" x="1309" y="415.4648">setCurrentRoom(Room): void</text></g><!--class Game--><g id="elem_Game"><rect codeLine="14" fill="#F1F1F1" height="48" id="Game" rx="2.5" ry="2.5" style="stroke:#181818;stroke-width:0.5;" width="71" x="1555.5" y="41"/><ellipse cx="1570.5" cy="57" fill="#ADD1B2" rx="11" ry="11" style="stroke:#181818;stroke-width:1.0;"/><path d="M1572.9731,63.1431 Q1572.3921,63.4419 1571.7529,63.5913 Q1571.1138,63.7407 1570.4082,63.7407 Q1567.9014,63.7407 1566.5815,62.0889 Q1565.2617,60.437 1565.2617,57.3159 Q1565.2617,54.1865 1566.5815,52.5347 Q1567.9014,50.8828 1570.4082,50.8828 Q1571.1138,50.8828 1571.7612,51.0322 Q1572.4087,51.1816 1572.9731,51.4805 L1572.9731,54.2031 Q1572.3423,53.6221 1571.7488,53.3523 Q1571.1553,53.0825 1570.5244,53.0825 Q1569.1797,53.0825 1568.4949,54.1492 Q1567.8101,55.2158 1567.8101,57.3159 Q1567.8101,59.4077 1568.4949,60.4744 Q1569.1797,61.541 1570.5244,61.541 Q1571.1553,61.541 1571.7488,61.2712 Q1572.3423,61.0015 1572.9731,60.4204 Z " fill="#000000"/><text fill="#000000" font-family="sans-serif" font-size="14" lengthAdjust="spacing" textLength="39" x="1584.5" y="62.291">Game</text><line style="stroke:#181818;stroke-width:0.5;" x1="1556.5" x2="1625.5" y1="73" y2="73"/><line style="stroke:#181818;stroke-width:0.5;" x1="1556.5" x2="1625.5" y1="81" y2="81"/></g><!--class CommandProcessor--><g id="elem_CommandProcessor"><rect codeLine="15" fill="#F1F1F1" height="48" id="CommandProcessor" rx="2.5" ry="2.5" style="stroke:#181818;stroke-width:0.5;" width="170" x="1326" y="150"/><ellipse cx="1341" cy="166" fill="#ADD1B2" rx="11" ry="11" style="stroke:#181818;stroke-width:1.0;"/><path d="M1343.4731,172.1431 Q1342.8921,172.4419 1342.2529,172.5913 Q1341.6138,172.7407 1340.9082,172.7407 Q1338.4014,172.7407 1337.0815,171.0889 Q1335.7617,169.437 1335.7617,166.3159 Q1335.7617,163.1865 1337.0815,161.5347 Q1338.4014,159.8828 1340.9082,159.8828 Q1341.6138,159.8828 1342.2612,160.0322 Q1342.9087,160.1816 1343.4731,160.4805 L1343.4731,163.2031 Q1342.8423,162.6221 1342.2488,162.3523 Q1341.6553,162.0825 1341.0244,162.0825 Q1339.6797,162.0825 1338.9949,163.1492 Q1338.3101,164.2158 1338.3101,166.3159 Q1338.3101,168.4077 1338.9949,169.4744 Q1339.6797,170.541 1341.0244,170.541 Q1341.6553,170.541 1342.2488,170.2712 Q1342.8423,170.0015 1343.4731,169.4204 Z " fill="#000000"/><text fill="#000000" font-family="sans-serif" font-size="14" lengthAdjust="spacing" textLength="138" x="1355" y="171.291">CommandProcessor</text><line style="stroke:#181818;stroke-width:0.5;" x1="1327" x2="1495" y1="182" y2="182"/><line style="stroke:#181818;stroke-width:0.5;" x1="1327" x2="1495" y1="190" y2="190"/></g><!--class GameLogger--><g id="elem_GameLogger"><rect codeLine="16" fill="#F1F1F1" height="48" id="GameLogger" rx="2.5" ry="2.5" style="stroke:#181818;stroke-width:0.5;" width="119" x="1531.5" y="150"/><ellipse cx="1546.5" cy="166" fill="#ADD1B2" rx="11" ry="11" style="stroke:#181818;stroke-width:1.0;"/><path d="M1548.9731,172.1431 Q1548.3921,172.4419 1547.7529,172.5913 Q1547.1138,172.7407 1546.4082,172.7407 Q1543.9014,172.7407 1542.5815,171.0889 Q1541.2617,169.437 1541.2617,166.3159 Q1541.2617,163.1865 1542.5815,161.5347 Q1543.9014,159.8828 1546.4082,159.8828 Q1547.1138,159.8828 1547.7612,160.0322 Q1548.4087,160.1816 1548.9731,160.4805 L1548.9731,163.2031 Q1548.3423,162.6221 1547.7488,162.3523 Q1547.1553,162.0825 1546.5244,162.0825 Q1545.1797,162.0825 1544.4949,163.1492 Q1543.8101,164.2158 1543.8101,166.3159 Q1543.8101,168.4077 1544.4949,169.4744 Q1545.1797,170.541 1546.5244,170.541 Q1547.1553,170.541 1547.7488,170.2712 Q1548.3423,170.0015 1548.9731,169.4204 Z " fill="#000000"/><text fill="#000000" font-family="sans-serif" font-size="14" lengthAdjust="spacing" textLength="87" x="1560.5" y="171.291">GameLogger</text><line style="stroke:#181818;stroke-width:0.5;" x1="1532.5" x2="1649.5" y1="182" y2="182"/><line style="stroke:#181818;stroke-width:0.5;" x1="1532.5" x2="1649.5" y1="190" y2="190"/></g><!--class GameFileManager--><g id="elem_GameFileManager"><rect codeLine="17" fill="#F1F1F1" height="48" id="GameFileManager" rx="2.5" ry="2.5" style="stroke:#181818;stroke-width:0.5;" width="155" x="1685.5" y="150"/><ellipse cx="1700.5" cy="166" fill="#ADD1B2" rx="11" ry="11" style="stroke:#181818;stroke-width:1.0;"/><path d="M1702.9731,172.1431 Q1702.3921,172.4419 1701.7529,172.5913 Q1701.1138,172.7407 1700.4082,172.7407 Q1697.9014,172.7407 1696.5815,171.0889 Q1695.2617,169.437 1695.2617,166.3159 Q1695.2617,163.1865 1696.5815,161.5347 Q1697.9014,159.8828 1700.4082,159.8828 Q1701.1138,159.8828 1701.7612,160.0322 Q1702.4087,160.1816 1702.9731,160.4805 L1702.9731,163.2031 Q1702.3423,162.6221 1701.7488,162.3523 Q1701.1553,162.0825 1700.5244,162.0825 Q1699.1797,162.0825 1698.4949,163.1492 Q1697.8101,164.2158 1697.8101,166.3159 Q1697.8101,168.4077 1698.4949,169.4744 Q1699.1797,170.541 1700.5244,170.541 Q1701.1553,170.541 1701.7488,170.2712 Q1702.3423,170.0015 1702.9731,169.4204 Z " fill="#000000"/><text fill="#000000" font-family="sans-serif" font-size="14" lengthAdjust="spacing" textLength="123" x="1714.5" y="171.291">GameFileManager</text><line style="stroke:#181818;stroke-width:0.5;" x1="1686.5" x2="1839.5" y1="182" y2="182"/><line style="stroke:#181818;stroke-width:0.5;" x1="1686.5" x2="1839.5" y1="190" y2="190"/></g><!--class GameStateMemento--><g id="elem_GameStateMemento"><rect codeLine="18" fill="#F1F1F1" height="48" id="GameStateMemento" rx="2.5" ry="2.5" style="stroke:#181818;stroke-width:0.5;" width="169" x="1875.5" y="150"/><ellipse cx="1890.5" cy="166" fill="#ADD1B2" rx="11" ry="11" style="stroke:#181818;stroke-width:1.0;"/><path d="M1892.9731,172.1431 Q1892.3921,172.4419 1891.7529,172.5913 Q1891.1138,172.7407 1890.4082,172.7407 Q1887.9014,172.7407 1886.5815,171.0889 Q1885.2617,169.437 1885.2617,166.3159 Q1885.2617,163.1865 1886.5815,161.5347 Q1887.9014,159.8828 1890.4082,159.8828 Q1891.1138,159.8828 1891.7612,160.0322 Q1892.4087,160.1816 1892.9731,160.4805 L1892.9731,163.2031 Q1892.3423,162.6221 1891.7488,162.3523 Q1891.1553,162.0825 1890.5244,162.0825 Q1889.1797,162.0825 1888.4949,163.1492 Q1887.8101,164.2158 1887.8101,166.3159 Q1887.8101,168.4077 1888.4949,169.4744 Q1889.1797,170.541 1890.5244,170.541 Q1891.1553,170.541 1891.7488,170.2712 Q1892.3423,170.0015 1892.9731,169.4204 Z " fill="#000000"/><text fill="#000000" font-family="sans-serif" font-size="14" lengthAdjust="spacing" textLength="137" x="1904.5" y="171.291">GameStateMemento</text><line style="stroke:#181818;stroke-width:0.5;" x1="1876.5" x2="2043.5" y1="182" y2="182"/><line style="stroke:#181818;stroke-width:0.5;" x1="1876.5" x2="2043.5" y1="190" y2="190"/></g><!--class Entity--><g id="elem_Entity"><rect codeLine="22" fill="#F1F1F1" height="97.4648" id="Entity" rx="2.5" ry="2.5" style="stroke:#181818;stroke-width:0.5;" width="176" x="554" y="874.81"/><ellipse cx="618.75" cy="890.81" fill="#A9DCDF" rx="11" ry="11" style="stroke:#181818;stroke-width:1.0;"/><path d="M618.6133,886.1581 L617.4595,891.2299 L619.7754,891.2299 Z M617.1191,883.9169 L620.1157,883.9169 L623.4609,896.31 L621.0122,896.31 L620.2485,893.247 L616.9697,893.247 L616.2227,896.31 L613.7739,896.31 Z " fill="#000000"/><text fill="#000000" font-family="sans-serif" font-size="14" font-style="italic" lengthAdjust="spacing" textLength="38" x="639.25" y="896.101">Entity</text><line style="stroke:#181818;stroke-width:0.5;" x1="555" x2="729" y1="906.81" y2="906.81"/><rect fill="none" height="6" style="stroke:#C82930;stroke-width:1.0;" width="6" x="562" y="917.5541"/><text fill="#000000" font-family="sans-serif" font-size="14" lengthAdjust="spacing" textLength="87" x="574" y="924.3452">name: String</text><rect fill="none" height="6" style="stroke:#C82930;stroke-width:1.0;" width="6" x="562" y="934.0424"/><text fill="#000000" font-family="sans-serif" font-size="14" lengthAdjust="spacing" textLength="69" x="574" y="940.8334">health: int</text><line style="stroke:#181818;stroke-width:0.5;" x1="555" x2="729" y1="947.7866" y2="947.7866"/><ellipse cx="565" cy="961.5307" fill="#84BE84" rx="3" ry="3" style="stroke:#038048;stroke-width:1.0;"/><text fill="#000000" font-family="sans-serif" font-size="14" lengthAdjust="spacing" textLength="150" x="574" y="965.3217">takeDamage(int): void</text></g><!--class Player--><g id="elem_Player"><rect codeLine="28" fill="#F1F1F1" height="113.9531" id="Player" rx="2.5" ry="2.5" style="stroke:#181818;stroke-width:0.5;" width="184" x="669" y="699.86"/><ellipse cx="736.25" cy="715.86" fill="#ADD1B2" rx="11" ry="11" style="stroke:#181818;stroke-width:1.0;"/><path d="M738.7231,722.0031 Q738.1421,722.3019 737.5029,722.4513 Q736.8638,722.6007 736.1582,722.6007 Q733.6514,722.6007 732.3315,720.9489 Q731.0117,719.297 731.0117,716.1759 Q731.0117,713.0465 732.3315,711.3947 Q733.6514,709.7428 736.1582,709.7428 Q736.8638,709.7428 737.5112,709.8922 Q738.1587,710.0416 738.7231,710.3405 L738.7231,713.0631 Q738.0923,712.4821 737.4988,712.2123 Q736.9053,711.9425 736.2744,711.9425 Q734.9297,711.9425 734.2449,713.0092 Q733.5601,714.0758 733.5601,716.1759 Q733.5601,718.2677 734.2449,719.3344 Q734.9297,720.401 736.2744,720.401 Q736.9053,720.401 737.4988,720.1312 Q738.0923,719.8615 738.7231,719.2804 Z " fill="#000000"/><text fill="#000000" font-family="sans-serif" font-size="14" lengthAdjust="spacing" textLength="41" x="756.75" y="721.151">Player</text><line style="stroke:#181818;stroke-width:0.5;" x1="670" x2="852" y1="731.86" y2="731.86"/><rect fill="none" height="6" style="stroke:#C82930;stroke-width:1.0;" width="6" x="677" y="742.6041"/><text fill="#000000" font-family="sans-serif" font-size="14" lengthAdjust="spacing" textLength="136" x="689" y="749.3952">inventory: Inventory</text><rect fill="none" height="6" style="stroke:#C82930;stroke-width:1.0;" width="6" x="677" y="759.0924"/><text fill="#000000" font-family="sans-serif" font-size="14" lengthAdjust="spacing" textLength="158" x="689" y="765.8834">equippedWeapon: Item</text><rect fill="none" height="6" style="stroke:#C82930;stroke-width:1.0;" width="6" x="677" y="775.5807"/><text fill="#000000" font-family="sans-serif" font-size="14" lengthAdjust="spacing" textLength="147" x="689" y="782.3717">equippedArmor: Item</text><line style="stroke:#181818;stroke-width:0.5;" x1="670" x2="852" y1="789.3248" y2="789.3248"/><ellipse cx="680" cy="803.069" fill="#84BE84" rx="3" ry="3" style="stroke:#038048;stroke-width:1.0;"/><text fill="#000000" font-family="sans-serif" font-size="14" lengthAdjust="spacing" textLength="126" x="689" y="806.86">attack(Entity): void</text></g><!--class Enemy--><g id="elem_Enemy"><rect codeLine="35" fill="#F1F1F1" height="80.9766" id="Enemy" rx="2.5" ry="2.5" style="stroke:#181818;stroke-width:0.5;" width="224" x="410" y="716.35"/><ellipse cx="495.25" cy="732.35" fill="#ADD1B2" rx="11" ry="11" style="stroke:#181818;stroke-width:1.0;"/><path d="M497.7231,738.4931 Q497.1421,738.7919 496.5029,738.9413 Q495.8638,739.0907 495.1582,739.0907 Q492.6514,739.0907 491.3315,737.4389 Q490.0117,735.787 490.0117,732.6659 Q490.0117,729.5365 491.3315,727.8847 Q492.6514,726.2328 495.1582,726.2328 Q495.8638,726.2328 496.5112,726.3822 Q497.1587,726.5316 497.7231,726.8305 L497.7231,729.5531 Q497.0923,728.9721 496.4988,728.7023 Q495.9053,728.4325 495.2744,728.4325 Q493.9297,728.4325 493.2449,729.4992 Q492.5601,730.5658 492.5601,732.6659 Q492.5601,734.7577 493.2449,735.8244 Q493.9297,736.891 495.2744,736.891 Q495.9053,736.891 496.4988,736.6212 Q497.0923,736.3515 497.7231,735.7704 Z " fill="#000000"/><text fill="#000000" font-family="sans-serif" font-size="14" lengthAdjust="spacing" textLength="45" x="515.75" y="737.641">Enemy</text><line style="stroke:#181818;stroke-width:0.5;" x1="411" x2="633" y1="748.35" y2="748.35"/><rect fill="none" height="6" style="stroke:#C82930;stroke-width:1.0;" width="6" x="418" y="759.0941"/><text fill="#000000" font-family="sans-serif" font-size="14" lengthAdjust="spacing" textLength="164" x="430" y="765.8852">strategy: EnemyStrategy</text><line style="stroke:#181818;stroke-width:0.5;" x1="411" x2="633" y1="772.8383" y2="772.8383"/><ellipse cx="421" cy="786.5824" fill="#84BE84" rx="3" ry="3" style="stroke:#038048;stroke-width:1.0;"/><text fill="#000000" font-family="sans-serif" font-size="14" lengthAdjust="spacing" textLength="198" x="430" y="790.3734">executeStrategy(Player): void</text></g><!--class EnemyStrategy--><g id="elem_EnemyStrategy"><rect codeLine="40" fill="#F1F1F1" height="64.4883" id="EnemyStrategy" rx="2.5" ry="2.5" style="stroke:#181818;stroke-width:0.5;" width="208" x="189" y="891.3"/><ellipse cx="238.25" cy="907.3" fill="#B4A7E5" rx="11" ry="11" style="stroke:#181818;stroke-width:1.0;"/><path d="M234.6777,903.5651 L234.6777,901.4069 L242.0571,901.4069 L242.0571,903.5651 L239.5918,903.5651 L239.5918,911.6418 L242.0571,911.6418 L242.0571,913.8 L234.6777,913.8 L234.6777,911.6418 L237.1431,911.6418 L237.1431,903.5651 Z " fill="#000000"/><text fill="#000000" font-family="sans-serif" font-size="14" font-style="italic" lengthAdjust="spacing" textLength="101" x="258.75" y="912.591">EnemyStrategy</text><line style="stroke:#181818;stroke-width:0.5;" x1="190" x2="396" y1="923.3" y2="923.3"/><line style="stroke:#181818;stroke-width:0.5;" x1="190" x2="396" y1="931.3" y2="931.3"/><ellipse cx="200" cy="945.0441" fill="#84BE84" rx="3" ry="3" style="stroke:#038048;stroke-width:1.0;"/><text fill="#000000" font-family="sans-serif" font-size="14" lengthAdjust="spacing" textLength="182" x="209" y="948.8352">attack(Enemy, Player): void</text></g><!--class AggressiveStrategy--><g id="elem_AggressiveStrategy"><rect codeLine="44" fill="#F1F1F1" height="48" id="AggressiveStrategy" rx="2.5" ry="2.5" style="stroke:#181818;stroke-width:0.5;" width="163" x="211.5" y="732.83"/><ellipse cx="226.5" cy="748.83" fill="#ADD1B2" rx="11" ry="11" style="stroke:#181818;stroke-width:1.0;"/><path d="M228.9731,754.9731 Q228.3921,755.2719 227.7529,755.4213 Q227.1138,755.5707 226.4082,755.5707 Q223.9014,755.5707 222.5815,753.9189 Q221.2617,752.267 221.2617,749.1459 Q221.2617,746.0165 222.5815,744.3647 Q223.9014,742.7128 226.4082,742.7128 Q227.1138,742.7128 227.7612,742.8622 Q228.4087,743.0116 228.9731,743.3105 L228.9731,746.0331 Q228.3423,745.4521 227.7488,745.1823 Q227.1553,744.9125 226.5244,744.9125 Q225.1797,744.9125 224.4949,745.9792 Q223.8101,747.0458 223.8101,749.1459 Q223.8101,751.2377 224.4949,752.3044 Q225.1797,753.371 226.5244,753.371 Q227.1553,753.371 227.7488,753.1012 Q228.3423,752.8315 228.9731,752.2504 Z " fill="#000000"/><text fill="#000000" font-family="sans-serif" font-size="14" lengthAdjust="spacing" textLength="131" x="240.5" y="754.121">AggressiveStrategy</text><line style="stroke:#181818;stroke-width:0.5;" x1="212.5" x2="373.5" y1="764.83" y2="764.83"/><line style="stroke:#181818;stroke-width:0.5;" x1="212.5" x2="373.5" y1="772.83" y2="772.83"/></g><!--class DefensiveStrategy--><g id="elem_DefensiveStrategy"><rect codeLine="45" fill="#F1F1F1" height="48" id="DefensiveStrategy" rx="2.5" ry="2.5" style="stroke:#181818;stroke-width:0.5;" width="154" x="22" y="732.83"/><ellipse cx="37" cy="748.83" fill="#ADD1B2" rx="11" ry="11" style="stroke:#181818;stroke-width:1.0;"/><path d="M39.4731,754.9731 Q38.8921,755.2719 38.2529,755.4213 Q37.6138,755.5707 36.9082,755.5707 Q34.4014,755.5707 33.0815,753.9189 Q31.7617,752.267 31.7617,749.1459 Q31.7617,746.0165 33.0815,744.3647 Q34.4014,742.7128 36.9082,742.7128 Q37.6138,742.7128 38.2612,742.8622 Q38.9087,743.0116 39.4731,743.3105 L39.4731,746.0331 Q38.8423,745.4521 38.2488,745.1823 Q37.6553,744.9125 37.0244,744.9125 Q35.6797,744.9125 34.9949,745.9792 Q34.3101,747.0458 34.3101,749.1459 Q34.3101,751.2377 34.9949,752.3044 Q35.6797,753.371 37.0244,753.371 Q37.6553,753.371 38.2488,753.1012 Q38.8423,752.8315 39.4731,752.2504 Z " fill="#000000"/><text fill="#000000" font-family="sans-serif" font-size="14" lengthAdjust="spacing" textLength="122" x="51" y="754.121">DefensiveStrategy</text><line style="stroke:#181818;stroke-width:0.5;" x1="23" x2="175" y1="764.83" y2="764.83"/><line style="stroke:#181818;stroke-width:0.5;" x1="23" x2="175" y1="772.83" y2="772.83"/></g><!--class Item--><g id="elem_Item"><rect codeLine="49" fill="#F1F1F1" height="97.4648" id="Item" rx="2.5" ry="2.5" style="stroke:#181818;stroke-width:0.5;" width="126" x="1190" y="1035.28"/><ellipse cx="1233.8" cy="1051.28" fill="#ADD1B2" rx="11" ry="11" style="stroke:#181818;stroke-width:1.0;"/><path d="M1236.2731,1057.4231 Q1235.6921,1057.7219 1235.0529,1057.8713 Q1234.4138,1058.0207 1233.7082,1058.0207 Q1231.2014,1058.0207 1229.8815,1056.3689 Q1228.5617,1054.717 1228.5617,1051.5959 Q1228.5617,1048.4665 1229.8815,1046.8147 Q1231.2014,1045.1628 1233.7082,1045.1628 Q1234.4138,1045.1628 1235.0612,1045.3122 Q1235.7087,1045.4616 1236.2731,1045.7605 L1236.2731,1048.4831 Q1235.6423,1047.9021 1235.0488,1047.6323 Q1234.4553,1047.3625 1233.8244,1047.3625 Q1232.4797,1047.3625 1231.7949,1048.4292 Q1231.1101,1049.4958 1231.1101,1051.5959 Q1231.1101,1053.6877 1231.7949,1054.7544 Q1232.4797,1055.821 1233.8244,1055.821 Q1234.4553,1055.821 1235.0488,1055.5512 Q1235.6423,1055.2815 1236.2731,1054.7004 Z " fill="#000000"/><text fill="#000000" font-family="sans-serif" font-size="14" lengthAdjust="spacing" textLength="30" x="1254.2" y="1056.571">Item</text><line style="stroke:#181818;stroke-width:0.5;" x1="1191" x2="1315" y1="1067.28" y2="1067.28"/><rect fill="none" height="6" style="stroke:#C82930;stroke-width:1.0;" width="6" x="1198" y="1078.0241"/><text fill="#000000" font-family="sans-serif" font-size="14" lengthAdjust="spacing" textLength="87" x="1210" y="1084.8152">name: String</text><rect fill="none" height="6" style="stroke:#C82930;stroke-width:1.0;" width="6" x="1198" y="1094.5124"/><text fill="#000000" font-family="sans-serif" font-size="14" lengthAdjust="spacing" textLength="100" x="1210" y="1101.3034">type: ItemType</text><rect fill="none" height="6" style="stroke:#C82930;stroke-width:1.0;" width="6" x="1198" y="1111.0007"/><text fill="#000000" font-family="sans-serif" font-size="14" lengthAdjust="spacing" textLength="69" x="1210" y="1117.7917">power: int</text><line style="stroke:#181818;stroke-width:0.5;" x1="1191" x2="1315" y1="1124.7448" y2="1124.7448"/></g><!--class CompositeItem--><g id="elem_CompositeItem"><rect codeLine="55" fill="#F1F1F1" height="48" id="CompositeItem" rx="2.5" ry="2.5" style="stroke:#181818;stroke-width:0.5;" width="136" x="1185" y="899.54"/><ellipse cx="1200" cy="915.54" fill="#ADD1B2" rx="11" ry="11" style="stroke:#181818;stroke-width:1.0;"/><path d="M1202.4731,921.6831 Q1201.8921,921.9819 1201.2529,922.1313 Q1200.6138,922.2807 1199.9082,922.2807 Q1197.4014,922.2807 1196.0815,920.6289 Q1194.7617,918.977 1194.7617,915.8559 Q1194.7617,912.7265 1196.0815,911.0747 Q1197.4014,909.4228 1199.9082,909.4228 Q1200.6138,909.4228 1201.2612,909.5722 Q1201.9087,909.7216 1202.4731,910.0205 L1202.4731,912.7431 Q1201.8423,912.1621 1201.2488,911.8923 Q1200.6553,911.6225 1200.0244,911.6225 Q1198.6797,911.6225 1197.9949,912.6892 Q1197.3101,913.7558 1197.3101,915.8559 Q1197.3101,917.9477 1197.9949,919.0144 Q1198.6797,920.081 1200.0244,920.081 Q1200.6553,920.081 1201.2488,919.8112 Q1201.8423,919.5415 1202.4731,918.9604 Z " fill="#000000"/><text fill="#000000" font-family="sans-serif" font-size="14" lengthAdjust="spacing" textLength="104" x="1214" y="920.831">CompositeItem</text><line style="stroke:#181818;stroke-width:0.5;" x1="1186" x2="1320" y1="931.54" y2="931.54"/><line style="stroke:#181818;stroke-width:0.5;" x1="1186" x2="1320" y1="939.54" y2="939.54"/></g><!--class Inventory--><g id="elem_Inventory"><rect codeLine="56" fill="#F1F1F1" height="48" id="Inventory" rx="2.5" ry="2.5" style="stroke:#181818;stroke-width:0.5;" width="96" x="909" y="899.54"/><ellipse cx="924" cy="915.54" fill="#ADD1B2" rx="11" ry="11" style="stroke:#181818;stroke-width:1.0;"/><path d="M926.4731,921.6831 Q925.8921,921.9819 925.2529,922.1313 Q924.6138,922.2807 923.9082,922.2807 Q921.4014,922.2807 920.0815,920.6289 Q918.7617,918.977 918.7617,915.8559 Q918.7617,912.7265 920.0815,911.0747 Q921.4014,909.4228 923.9082,909.4228 Q924.6138,909.4228 925.2612,909.5722 Q925.9087,909.7216 926.4731,910.0205 L926.4731,912.7431 Q925.8423,912.1621 925.2488,911.8923 Q924.6553,911.6225 924.0244,911.6225 Q922.6797,911.6225 921.9949,912.6892 Q921.3101,913.7558 921.3101,915.8559 Q921.3101,917.9477 921.9949,919.0144 Q922.6797,920.081 924.0244,920.081 Q924.6553,920.081 925.2488,919.8112 Q925.8423,919.5415 926.4731,918.9604 Z " fill="#000000"/><text fill="#000000" font-family="sans-serif" font-size="14" lengthAdjust="spacing" textLength="64" x="938" y="920.831">Inventory</text><line style="stroke:#181818;stroke-width:0.5;" x1="910" x2="1004" y1="931.54" y2="931.54"/><line style="stroke:#181818;stroke-width:0.5;" x1="910" x2="1004" y1="939.54" y2="939.54"/></g><!--class ItemBuilder--><g id="elem_ItemBuilder"><rect codeLine="57" fill="#F1F1F1" height="48" id="ItemBuilder" rx="2.5" ry="2.5" style="stroke:#181818;stroke-width:0.5;" width="110" x="1040" y="899.54"/><ellipse cx="1055" cy="915.54" fill="#ADD1B2" rx="11" ry="11" style="stroke:#181818;stroke-width:1.0;"/><path d="M1057.4731,921.6831 Q1056.8921,921.9819 1056.2529,922.1313 Q1055.6138,922.2807 1054.9082,922.2807 Q1052.4014,922.2807 1051.0815,920.6289 Q1049.7617,918.977 1049.7617,915.8559 Q1049.7617,912.7265 1051.0815,911.0747 Q1052.4014,909.4228 1054.9082,909.4228 Q1055.6138,909.4228 1056.2612,909.5722 Q1056.9087,909.7216 1057.4731,910.0205 L1057.4731,912.7431 Q1056.8423,912.1621 1056.2488,911.8923 Q1055.6553,911.6225 1055.0244,911.6225 Q1053.6797,911.6225 1052.9949,912.6892 Q1052.3101,913.7558 1052.3101,915.8559 Q1052.3101,917.9477 1052.9949,919.0144 Q1053.6797,920.081 1055.0244,920.081 Q1055.6553,920.081 1056.2488,919.8112 Q1056.8423,919.5415 1057.4731,918.9604 Z " fill="#000000"/><text fill="#000000" font-family="sans-serif" font-size="14" lengthAdjust="spacing" textLength="78" x="1069" y="920.831">ItemBuilder</text><line style="stroke:#181818;stroke-width:0.5;" x1="1041" x2="1149" y1="931.54" y2="931.54"/><line style="stroke:#181818;stroke-width:0.5;" x1="1041" x2="1149" y1="939.54" y2="939.54"/></g><!--class ItemType--><g id="elem_ItemType"><rect codeLine="58" fill="#F1F1F1" height="48" id="ItemType" rx="2.5" ry="2.5" style="stroke:#181818;stroke-width:0.5;" width="95" x="1355.5" y="899.54"/><ellipse cx="1370.5" cy="915.54" fill="#EB937F" rx="11" ry="11" style="stroke:#181818;stroke-width:1.0;"/><path d="M1374.1143,922.04 L1366.3945,922.04 L1366.3945,909.6469 L1374.1143,909.6469 L1374.1143,911.8051 L1368.8433,911.8051 L1368.8433,914.478 L1373.6162,914.478 L1373.6162,916.6362 L1368.8433,916.6362 L1368.8433,919.8818 L1374.1143,919.8818 Z " fill="#000000"/><text fill="#000000" font-family="sans-serif" font-size="14" lengthAdjust="spacing" textLength="63" x="1384.5" y="920.831">ItemType</text><line style="stroke:#181818;stroke-width:0.5;" x1="1356.5" x2="1449.5" y1="931.54" y2="931.54"/><line style="stroke:#181818;stroke-width:0.5;" x1="1356.5" x2="1449.5" y1="939.54" y2="939.54"/></g><!--class Room--><g id="elem_Room"><rect codeLine="62" fill="#F1F1F1" height="130.4414" id="Room" rx="2.5" ry="2.5" style="stroke:#181818;stroke-width:0.5;" width="228" x="708" y="485.42"/><ellipse cx="797.75" cy="501.42" fill="#ADD1B2" rx="11" ry="11" style="stroke:#181818;stroke-width:1.0;"/><path d="M800.2231,507.5631 Q799.6421,507.8619 799.0029,508.0113 Q798.3638,508.1607 797.6582,508.1607 Q795.1514,508.1607 793.8315,506.5089 Q792.5117,504.857 792.5117,501.7359 Q792.5117,498.6065 793.8315,496.9547 Q795.1514,495.3028 797.6582,495.3028 Q798.3638,495.3028 799.0112,495.4522 Q799.6587,495.6016 800.2231,495.9005 L800.2231,498.6231 Q799.5923,498.0421 798.9988,497.7723 Q798.4053,497.5025 797.7744,497.5025 Q796.4297,497.5025 795.7449,498.5692 Q795.0601,499.6358 795.0601,501.7359 Q795.0601,503.8277 795.7449,504.8944 Q796.4297,505.961 797.7744,505.961 Q798.4053,505.961 798.9988,505.6912 Q799.5923,505.4215 800.2231,504.8404 Z " fill="#000000"/><text fill="#000000" font-family="sans-serif" font-size="14" lengthAdjust="spacing" textLength="40" x="818.25" y="506.711">Room</text><line style="stroke:#181818;stroke-width:0.5;" x1="709" x2="935" y1="517.42" y2="517.42"/><rect fill="none" height="6" style="stroke:#C82930;stroke-width:1.0;" width="6" x="716" y="528.1641"/><text fill="#000000" font-family="sans-serif" font-size="14" lengthAdjust="spacing" textLength="87" x="728" y="534.9552">name: String</text><rect fill="none" height="6" style="stroke:#C82930;stroke-width:1.0;" width="6" x="716" y="544.6524"/><text fill="#000000" font-family="sans-serif" font-size="14" lengthAdjust="spacing" textLength="126" x="728" y="551.4434">description: String</text><rect fill="none" height="6" style="stroke:#C82930;stroke-width:1.0;" width="6" x="716" y="561.1407"/><text fill="#000000" font-family="sans-serif" font-size="14" lengthAdjust="spacing" textLength="202" x="728" y="567.9317">exits: Map&lt;Direction, Room&gt;</text><rect fill="none" height="6" style="stroke:#C82930;stroke-width:1.0;" width="6" x="716" y="577.629"/><text fill="#000000" font-family="sans-serif" font-size="14" lengthAdjust="spacing" textLength="120" x="728" y="584.42">items: List&lt;Item&gt;</text><rect fill="none" height="6" style="stroke:#C82930;stroke-width:1.0;" width="6" x="716" y="594.1173"/><text fill="#000000" font-family="sans-serif" font-size="14" lengthAdjust="spacing" textLength="98" x="728" y="600.9083">enemy: Enemy</text><line style="stroke:#181818;stroke-width:0.5;" x1="709" x2="935" y1="607.8614" y2="607.8614"/></g><!--class CompositeRoom--><g id="elem_CompositeRoom"><rect codeLine="70" fill="#F1F1F1" height="48" id="CompositeRoom" rx="2.5" ry="2.5" style="stroke:#181818;stroke-width:0.5;" width="146" x="644" y="316.71"/><ellipse cx="659" cy="332.71" fill="#ADD1B2" rx="11" ry="11" style="stroke:#181818;stroke-width:1.0;"/><path d="M661.4731,338.8531 Q660.8921,339.1519 660.2529,339.3013 Q659.6138,339.4507 658.9082,339.4507 Q656.4014,339.4507 655.0815,337.7989 Q653.7617,336.147 653.7617,333.0259 Q653.7617,329.8965 655.0815,328.2447 Q656.4014,326.5928 658.9082,326.5928 Q659.6138,326.5928 660.2612,326.7422 Q660.9087,326.8916 661.4731,327.1905 L661.4731,329.9131 Q660.8423,329.3321 660.2488,329.0623 Q659.6553,328.7925 659.0244,328.7925 Q657.6797,328.7925 656.9949,329.8592 Q656.3101,330.9258 656.3101,333.0259 Q656.3101,335.1177 656.9949,336.1844 Q657.6797,337.251 659.0244,337.251 Q659.6553,337.251 660.2488,336.9812 Q660.8423,336.7115 661.4731,336.1304 Z " fill="#000000"/><text fill="#000000" font-family="sans-serif" font-size="14" lengthAdjust="spacing" textLength="114" x="673" y="338.001">CompositeRoom</text><line style="stroke:#181818;stroke-width:0.5;" x1="645" x2="789" y1="348.71" y2="348.71"/><line style="stroke:#181818;stroke-width:0.5;" x1="645" x2="789" y1="356.71" y2="356.71"/></g><!--class RoomIterator--><g id="elem_RoomIterator"><rect codeLine="71" fill="#F1F1F1" height="48" id="RoomIterator" rx="2.5" ry="2.5" style="stroke:#181818;stroke-width:0.5;" width="123" x="824.5" y="316.71"/><ellipse cx="839.5" cy="332.71" fill="#ADD1B2" rx="11" ry="11" style="stroke:#181818;stroke-width:1.0;"/><path d="M841.9731,338.8531 Q841.3921,339.1519 840.7529,339.3013 Q840.1138,339.4507 839.4082,339.4507 Q836.9014,339.4507 835.5815,337.7989 Q834.2617,336.147 834.2617,333.0259 Q834.2617,329.8965 835.5815,328.2447 Q836.9014,326.5928 839.4082,326.5928 Q840.1138,326.5928 840.7612,326.7422 Q841.4087,326.8916 841.9731,327.1905 L841.9731,329.9131 Q841.3423,329.3321 840.7488,329.0623 Q840.1553,328.7925 839.5244,328.7925 Q838.1797,328.7925 837.4949,329.8592 Q836.8101,330.9258 836.8101,333.0259 Q836.8101,335.1177 837.4949,336.1844 Q838.1797,337.251 839.5244,337.251 Q840.1553,337.251 840.7488,336.9812 Q841.3423,336.7115 841.9731,336.1304 Z " fill="#000000"/><text fill="#000000" font-family="sans-serif" font-size="14" lengthAdjust="spacing" textLength="91" x="853.5" y="338.001">RoomIterator</text><line style="stroke:#181818;stroke-width:0.5;" x1="825.5" x2="946.5" y1="348.71" y2="348.71"/><line style="stroke:#181818;stroke-width:0.5;" x1="825.5" x2="946.5" y1="356.71" y2="356.71"/></g><!--class RoomFactory--><g id="elem_RoomFactory"><rect codeLine="72" fill="#F1F1F1" height="48" id="RoomFactory" rx="2.5" ry="2.5" style="stroke:#181818;stroke-width:0.5;" width="122" x="982" y="316.71"/><ellipse cx="997" cy="332.71" fill="#ADD1B2" rx="11" ry="11" style="stroke:#181818;stroke-width:1.0;"/><path d="M999.4731,338.8531 Q998.8921,339.1519 998.2529,339.3013 Q997.6138,339.4507 996.9082,339.4507 Q994.4014,339.4507 993.0815,337.7989 Q991.7617,336.147 991.7617,333.0259 Q991.7617,329.8965 993.0815,328.2447 Q994.4014,326.5928 996.9082,326.5928 Q997.6138,326.5928 998.2612,326.7422 Q998.9087,326.8916 999.4731,327.1905 L999.4731,329.9131 Q998.8423,329.3321 998.2488,329.0623 Q997.6553,328.7925 997.0244,328.7925 Q995.6797,328.7925 994.9949,329.8592 Q994.3101,330.9258 994.3101,333.0259 Q994.3101,335.1177 994.9949,336.1844 Q995.6797,337.251 997.0244,337.251 Q997.6553,337.251 998.2488,336.9812 Q998.8423,336.7115 999.4731,336.1304 Z " fill="#000000"/><text fill="#000000" font-family="sans-serif" font-size="14" lengthAdjust="spacing" textLength="90" x="1011" y="338.001">RoomFactory</text><line style="stroke:#181818;stroke-width:0.5;" x1="983" x2="1103" y1="348.71" y2="348.71"/><line style="stroke:#181818;stroke-width:0.5;" x1="983" x2="1103" y1="356.71" y2="356.71"/></g><!--class Direction--><g id="elem_Direction"><rect codeLine="73" fill="#F1F1F1" height="48" id="Direction" rx="2.5" ry="2.5" style="stroke:#181818;stroke-width:0.5;" width="94" x="1139" y="316.71"/><ellipse cx="1154" cy="332.71" fill="#EB937F" rx="11" ry="11" style="stroke:#181818;stroke-width:1.0;"/><path d="M1157.6143,339.21 L1149.8945,339.21 L1149.8945,326.8169 L1157.6143,326.8169 L1157.6143,328.9751 L1152.3433,328.9751 L1152.3433,331.648 L1157.1162,331.648 L1157.1162,333.8062 L1152.3433,333.8062 L1152.3433,337.0518 L1157.6143,337.0518 Z " fill="#000000"/><text fill="#000000" font-family="sans-serif" font-size="14" lengthAdjust="spacing" textLength="62" x="1168" y="338.001">Direction</text><line style="stroke:#181818;stroke-width:0.5;" x1="1140" x2="1232" y1="348.71" y2="348.71"/><line style="stroke:#181818;stroke-width:0.5;" x1="1140" x2="1232" y1="356.71" y2="356.71"/></g><!--class EventManager--><g id="elem_EventManager"><rect codeLine="77" fill="#F1F1F1" height="48" id="EventManager" rx="2.5" ry="2.5" style="stroke:#181818;stroke-width:0.5;" width="129" x="1624.5" y="526.64"/><ellipse cx="1639.5" cy="542.64" fill="#ADD1B2" rx="11" ry="11" style="stroke:#181818;stroke-width:1.0;"/><path d="M1641.9731,548.7831 Q1641.3921,549.0819 1640.7529,549.2313 Q1640.1138,549.3807 1639.4082,549.3807 Q1636.9014,549.3807 1635.5815,547.7289 Q1634.2617,546.077 1634.2617,542.9559 Q1634.2617,539.8265 1635.5815,538.1747 Q1636.9014,536.5228 1639.4082,536.5228 Q1640.1138,536.5228 1640.7612,536.6722 Q1641.4087,536.8216 1641.9731,537.1205 L1641.9731,539.8431 Q1641.3423,539.2621 1640.7488,538.9923 Q1640.1553,538.7225 1639.5244,538.7225 Q1638.1797,538.7225 1637.4949,539.7892 Q1636.8101,540.8558 1636.8101,542.9559 Q1636.8101,545.0477 1637.4949,546.1144 Q1638.1797,547.181 1639.5244,547.181 Q1640.1553,547.181 1640.7488,546.9112 Q1641.3423,546.6415 1641.9731,546.0604 Z " fill="#000000"/><text fill="#000000" font-family="sans-serif" font-size="14" lengthAdjust="spacing" textLength="97" x="1653.5" y="547.931">EventManager</text><line style="stroke:#181818;stroke-width:0.5;" x1="1625.5" x2="1752.5" y1="558.64" y2="558.64"/><line style="stroke:#181818;stroke-width:0.5;" x1="1625.5" x2="1752.5" y1="566.64" y2="566.64"/></g><!--class EventListener--><g id="elem_EventListener"><rect codeLine="78" fill="#F1F1F1" height="48" id="EventListener" rx="2.5" ry="2.5" style="stroke:#181818;stroke-width:0.5;" width="123" x="1783.5" y="732.83"/><ellipse cx="1798.5" cy="748.83" fill="#B4A7E5" rx="11" ry="11" style="stroke:#181818;stroke-width:1.0;"/><path d="M1794.9277,745.0951 L1794.9277,742.9369 L1802.3071,742.9369 L1802.3071,745.0951 L1799.8418,745.0951 L1799.8418,753.1718 L1802.3071,753.1718 L1802.3071,755.33 L1794.9277,755.33 L1794.9277,753.1718 L1797.3931,753.1718 L1797.3931,745.0951 Z " fill="#000000"/><text fill="#000000" font-family="sans-serif" font-size="14" font-style="italic" lengthAdjust="spacing" textLength="91" x="1812.5" y="754.121">EventListener</text><line style="stroke:#181818;stroke-width:0.5;" x1="1784.5" x2="1905.5" y1="764.83" y2="764.83"/><line style="stroke:#181818;stroke-width:0.5;" x1="1784.5" x2="1905.5" y1="772.83" y2="772.83"/></g><!--class GameEvent--><g id="elem_GameEvent"><rect codeLine="79" fill="#F1F1F1" height="48" id="GameEvent" rx="2.5" ry="2.5" style="stroke:#181818;stroke-width:0.5;" width="108" x="1635" y="732.83"/><ellipse cx="1650" cy="748.83" fill="#ADD1B2" rx="11" ry="11" style="stroke:#181818;stroke-width:1.0;"/><path d="M1652.4731,754.9731 Q1651.8921,755.2719 1651.2529,755.4213 Q1650.6138,755.5707 1649.9082,755.5707 Q1647.4014,755.5707 1646.0815,753.9189 Q1644.7617,752.267 1644.7617,749.1459 Q1644.7617,746.0165 1646.0815,744.3647 Q1647.4014,742.7128 1649.9082,742.7128 Q1650.6138,742.7128 1651.2612,742.8622 Q1651.9087,743.0116 1652.4731,743.3105 L1652.4731,746.0331 Q1651.8423,745.4521 1651.2488,745.1823 Q1650.6553,744.9125 1650.0244,744.9125 Q1648.6797,744.9125 1647.9949,745.9792 Q1647.3101,747.0458 1647.3101,749.1459 Q1647.3101,751.2377 1647.9949,752.3044 Q1648.6797,753.371 1650.0244,753.371 Q1650.6553,753.371 1651.2488,753.1012 Q1651.8423,752.8315 1652.4731,752.2504 Z " fill="#000000"/><text fill="#000000" font-family="sans-serif" font-size="14" lengthAdjust="spacing" textLength="76" x="1664" y="754.121">GameEvent</text><line style="stroke:#181818;stroke-width:0.5;" x1="1636" x2="1742" y1="764.83" y2="764.83"/><line style="stroke:#181818;stroke-width:0.5;" x1="1636" x2="1742" y1="772.83" y2="772.83"/></g><!--class ScoreListener--><g id="elem_ScoreListener"><rect codeLine="80" fill="#F1F1F1" height="48" id="ScoreListener" rx="2.5" ry="2.5" style="stroke:#181818;stroke-width:0.5;" width="124" x="1789" y="526.64"/><ellipse cx="1804" cy="542.64" fill="#ADD1B2" rx="11" ry="11" style="stroke:#181818;stroke-width:1.0;"/><path d="M1806.4731,548.7831 Q1805.8921,549.0819 1805.2529,549.2313 Q1804.6138,549.3807 1803.9082,549.3807 Q1801.4014,549.3807 1800.0815,547.7289 Q1798.7617,546.077 1798.7617,542.9559 Q1798.7617,539.8265 1800.0815,538.1747 Q1801.4014,536.5228 1803.9082,536.5228 Q1804.6138,536.5228 1805.2612,536.6722 Q1805.9087,536.8216 1806.4731,537.1205 L1806.4731,539.8431 Q1805.8423,539.2621 1805.2488,538.9923 Q1804.6553,538.7225 1804.0244,538.7225 Q1802.6797,538.7225 1801.9949,539.7892 Q1801.3101,540.8558 1801.3101,542.9559 Q1801.3101,545.0477 1801.9949,546.1144 Q1802.6797,547.181 1804.0244,547.181 Q1804.6553,547.181 1805.2488,546.9112 Q1805.8423,546.6415 1806.4731,546.0604 Z " fill="#000000"/><text fill="#000000" font-family="sans-serif" font-size="14" lengthAdjust="spacing" textLength="92" x="1818" y="547.931">ScoreListener</text><line style="stroke:#181818;stroke-width:0.5;" x1="1790" x2="1912" y1="558.64" y2="558.64"/><line style="stroke:#181818;stroke-width:0.5;" x1="1790" x2="1912" y1="566.64" y2="566.64"/></g><!--link GameContext to Player--><g id="link_GameContext_Player"><path codeLine="83" d="M1381.83,422.67 C1359.83,490.74 1318.64,585.4 1249,639.86 C1188.12,687.47 982.9945,723.926 859.2745,742.356 " fill="none" id="GameContext-to-Player" style="stroke:#181818;stroke-width:1.0;"/><polygon fill="#181818" points="853.34,743.24,862.8311,745.8703,858.2854,742.5033,861.6524,737.9576,853.34,743.24" style="stroke:#181818;stroke-width:1.0;"/></g><!--link GameContext to Room--><g id="link_GameContext_Room"><path codeLine="84" d="M1293.9,422.75 C1279.26,431.56 1264.07,439.74 1249,446.42 C1147.9,491.22 1030.2535,517.375 942.1035,532.505 " fill="none" id="GameContext-to-Room" style="stroke:#181818;stroke-width:1.0;"/><polygon fill="#181818" points="936.19,533.52,945.737,535.9399,941.1179,532.6742,944.3836,528.0552,936.19,533.52" style="stroke:#181818;stroke-width:1.0;"/></g><!--link GameContext to EventManager--><g id="link_GameContext_EventManager"><path codeLine="85" d="M1514.39,422.69 C1565.53,459.87 1617.4767,497.6421 1652.0067,522.7421 " fill="none" id="GameContext-to-EventManager" style="stroke:#181818;stroke-width:1.0;"/><polygon fill="#181818" points="1656.86,526.27,1651.932,517.7427,1652.8156,523.3301,1647.2282,524.2137,1656.86,526.27" style="stroke:#181818;stroke-width:1.0;"/></g><!--link Game to CommandProcessor--><g id="link_Game_CommandProcessor"><path codeLine="86" d="M1555.01,87.39 C1524.74,105.38 1486.7072,127.9935 1455.5272,146.5335 " fill="none" id="Game-to-CommandProcessor" style="stroke:#181818;stroke-width:1.0;"/><polygon fill="#181818" points="1450.37,149.6,1460.1501,148.4383,1454.6676,147.0446,1456.0614,141.5621,1450.37,149.6" style="stroke:#181818;stroke-width:1.0;"/></g><!--link Game to GameContext--><g id="link_Game_GameContext"><path codeLine="87" d="M1555.14,71.32 C1486.05,82.37 1338.69,110.17 1309,150 C1284.28,183.15 1295.9844,218.895 1320.7544,254.055 " fill="none" id="Game-to-GameContext" style="stroke:#181818;stroke-width:1.0;"/><polygon fill="#181818" points="1324.21,258.96,1322.2967,249.2988,1321.3304,254.8725,1315.7567,253.9062,1324.21,258.96" style="stroke:#181818;stroke-width:1.0;"/></g><!--link Game to GameLogger--><g id="link_Game_GameLogger"><path codeLine="88" d="M1591,89.48 C1591,107.32 1591,125.74 1591,143.57 " fill="none" id="Game-to-GameLogger" style="stroke:#181818;stroke-width:1.0;"/><polygon fill="#181818" points="1591,149.57,1595,140.57,1591,144.57,1587,140.57,1591,149.57" style="stroke:#181818;stroke-width:1.0;"/></g><!--link Game to GameFileManager--><g id="link_Game_GameFileManager"><path codeLine="89" d="M1626.64,88.17 C1655.47,106.1 1690.8658,128.12 1720.2258,146.39 " fill="none" id="Game-to-GameFileManager" style="stroke:#181818;stroke-width:1.0;"/><polygon fill="#181818" points="1725.32,149.56,1719.792,141.4088,1721.0748,146.9183,1715.5653,148.2011,1725.32,149.56" style="stroke:#181818;stroke-width:1.0;"/></g><!--link Game to GameStateMemento--><g id="link_Game_GameStateMemento"><path codeLine="90" d="M1626.72,76.35 C1684.59,93.14 1794.5475,125.0188 1873.1975,147.8288 " fill="none" id="Game-to-GameStateMemento" style="stroke:#181818;stroke-width:1.0;"/><polygon fill="#181818" points="1878.96,149.5,1871.4303,143.1514,1874.1579,148.1073,1869.202,150.8348,1878.96,149.5" style="stroke:#181818;stroke-width:1.0;"/></g><!--link CommandProcessor to GameContext--><g id="link_CommandProcessor_GameContext"><path codeLine="92" d="M1409.87,198.25 C1409.1,214.21 1408.3127,230.4371 1407.2327,252.5471 " fill="none" id="CommandProcessor-to-GameContext" style="stroke:#181818;stroke-width:1.0;"/><polygon fill="#181818" points="1406.94,258.54,1411.3743,249.7459,1407.1839,253.546,1403.3839,249.3556,1406.94,258.54" style="stroke:#181818;stroke-width:1.0;"/></g><!--link Player to Entity--><g id="link_Player_Entity"><path codeLine="94" d="M720.38,814.06 C706.17,833.72 700.898,841.0072 687.228,859.9372 " fill="none" id="Player-to-Entity" style="stroke:#181818;stroke-width:1.0;"/><polygon fill="none" points="676.69,874.53,692.0923,863.4498,682.3637,856.4245,676.69,874.53" style="stroke:#181818;stroke-width:1.0;"/></g><!--link Enemy to Entity--><g id="link_Enemy_Entity"><path codeLine="95" d="M551.05,797.71 C567.9,820.84 578.6505,835.5918 596.4205,859.9818 " fill="none" id="Enemy-to-Entity" style="stroke:#181818;stroke-width:1.0;"/><polygon fill="none" points="607.02,874.53,601.2699,856.4486,591.5711,863.515,607.02,874.53" style="stroke:#181818;stroke-width:1.0;"/></g><!--link Player to Inventory--><g id="link_Player_Inventory"><path codeLine="96" d="M828.18,814.29 C862.75,843.34 898.4365,873.3299 924.6165,895.3299 " fill="none" id="Player-to-Inventory" style="stroke:#181818;stroke-width:1.0;"/><polygon fill="#181818" points="929.21,899.19,924.8932,890.3376,925.3821,895.9733,919.7464,896.4622,929.21,899.19" style="stroke:#181818;stroke-width:1.0;"/></g><!--link Player to Item--><g id="link_Player_Item"><path codeLine="97" d="M853.43,764.06 C1035.89,777.29 1428.19,810.79 1468,856.54 C1508.76,903.39 1502.74,944.8 1468,996.28 C1434.39,1046.07 1372.8059,1066.2217 1322.3559,1075.2617 " fill="none" id="Player-to-Item" style="stroke:#181818;stroke-width:1.0;"/><polygon fill="#181818" points="1316.45,1076.32,1326.0144,1078.6699,1321.3716,1075.4381,1324.6034,1070.7953,1316.45,1076.32" style="stroke:#181818;stroke-width:1.0;"/></g><!--link Enemy to EnemyStrategy--><g id="link_Enemy_EnemyStrategy"><path codeLine="98" d="M466.57,797.71 C426.72,826.36 378.611,860.9666 341.711,887.5066 " fill="none" id="Enemy-to-EnemyStrategy" style="stroke:#181818;stroke-width:1.0;"/><polygon fill="#181818" points="336.84,891.01,346.482,889.0022,340.8991,888.0905,341.8108,882.5076,336.84,891.01" style="stroke:#181818;stroke-width:1.0;"/></g><!--link AggressiveStrategy to EnemyStrategy--><g id="link_AggressiveStrategy_EnemyStrategy"><path codeLine="99" d="M293,781.08 C293,809.81 293,840.83 293,872.95 " fill="none" id="AggressiveStrategy-to-EnemyStrategy" style="stroke:#181818;stroke-width:1.0;stroke-dasharray:7.0,7.0;"/><polygon fill="none" points="293,890.95,299,872.95,287,872.95,293,890.95" style="stroke:#181818;stroke-width:1.0;"/></g><!--link DefensiveStrategy to EnemyStrategy--><g id="link_DefensiveStrategy_EnemyStrategy"><path codeLine="100" d="M126.38,781.08 C160.22,809.81 204.2387,847.1798 242.0687,879.2998 " fill="none" id="DefensiveStrategy-to-EnemyStrategy" style="stroke:#181818;stroke-width:1.0;stroke-dasharray:7.0,7.0;"/><polygon fill="none" points="255.79,890.95,245.9521,874.7261,238.1853,883.8736,255.79,890.95" style="stroke:#181818;stroke-width:1.0;"/></g><!--link Inventory to Item--><g id="link_Inventory_Item"><path codeLine="102" d="M973.47,947.91 C985.43,963.41 1002.82,983.24 1022,996.28 C1073.46,1031.25 1135.1089,1052.8542 1183.8189,1066.3842 " fill="none" id="Inventory-to-Item" style="stroke:#181818;stroke-width:1.0;"/><polygon fill="#181818" points="1189.6,1067.99,1181.9988,1061.7272,1184.7824,1066.6518,1179.8578,1069.4354,1189.6,1067.99" style="stroke:#181818;stroke-width:1.0;"/></g><!--link CompositeItem to Item--><g id="link_CompositeItem_Item"><path codeLine="103" d="M1253,947.92 C1253,970.74 1253,1000.12 1253,1028.96 " fill="none" id="CompositeItem-to-Item" style="stroke:#181818;stroke-width:1.0;"/><polygon fill="#181818" points="1253,1034.96,1257,1025.96,1253,1029.96,1249,1025.96,1253,1034.96" style="stroke:#181818;stroke-width:1.0;"/></g><!--link ItemBuilder to Item--><g id="link_ItemBuilder_Item"><path codeLine="104" d="M1118.31,947.92 C1141.06,970.74 1172.104,1001.8707 1200.854,1030.7107 " fill="none" id="ItemBuilder-to-Item" style="stroke:#181818;stroke-width:1.0;"/><polygon fill="#181818" points="1205.09,1034.96,1201.5688,1025.7621,1201.56,1031.4189,1195.9031,1031.4101,1205.09,1034.96" style="stroke:#181818;stroke-width:1.0;"/></g><!--link Room to Item--><g id="link_Room_Item"><path codeLine="106" d="M936.35,564.7 C1096.14,589.8 1380.88,660.93 1508,856.54 C1541.84,908.62 1541.72,944.12 1508,996.28 C1467.31,1059.2 1383.622,1076.8661 1322.242,1081.6261 " fill="none" id="Room-to-Item" style="stroke:#181818;stroke-width:1.0;"/><polygon fill="#181818" points="1316.26,1082.09,1325.5423,1085.3822,1321.245,1081.7034,1324.9238,1077.4061,1316.26,1082.09" style="stroke:#181818;stroke-width:1.0;"/></g><!--link Room to Enemy--><g id="link_Room_Enemy"><path codeLine="107" d="M713.28,616.21 C692.36,629.28 670.81,643.22 651,656.86 C624.03,675.43 599.7396,693.7853 576.0696,712.3653 " fill="none" id="Room-to-Enemy" style="stroke:#181818;stroke-width:1.0;"/><polygon fill="#181818" points="571.35,716.07,580.8993,713.6593,575.283,712.9827,575.9596,707.3665,571.35,716.07" style="stroke:#181818;stroke-width:1.0;"/></g><!--link Room to Room--><g id="link_Room_Room"><path codeLine="108" d="M936.32,533.74 C956.74,535.94 971,541.57 971,550.64 C971,559.7 962.7058,564.7002 942.2858,566.8902 " fill="none" id="Room-to-Room" style="stroke:#181818;stroke-width:1.0;"/><polygon fill="#181818" points="936.32,567.53,945.6952,570.5475,941.2915,566.9968,944.8421,562.5931,936.32,567.53" style="stroke:#181818;stroke-width:1.0;"/><text fill="#000000" font-family="sans-serif" font-size="13" lengthAdjust="spacing" textLength="31" x="977" y="555.7084">exits</text></g><!--link CompositeRoom to Room--><g id="link_CompositeRoom_Room"><path codeLine="109" d="M720.16,365.15 C730.47,394.04 745.9657,428.539 768.4557,469.309 " fill="none" id="CompositeRoom-to-Room" style="stroke:#181818;stroke-width:1.0;"/><polygon fill="none" points="777.15,485.07,773.7094,466.4109,763.2021,472.2071,777.15,485.07" style="stroke:#181818;stroke-width:1.0;"/></g><!--link CompositeRoom to Room--><g id="link_CompositeRoom_Room"><path codeLine="110" d="M737.52,365.15 C756.39,394.04 780.4597,438.8458 799.1497,479.6158 " fill="none" id="CompositeRoom-to-Room-1" style="stroke:#181818;stroke-width:1.0;"/><polygon fill="#181818" points="801.65,485.07,801.5356,475.2218,799.5664,480.5248,794.2634,478.5556,801.65,485.07" style="stroke:#181818;stroke-width:1.0;"/></g><!--link RoomIterator to Room--><g id="link_RoomIterator_Room"><path codeLine="111" d="M878.78,365.15 C869.89,394.04 856.1852,438.5655 843.6352,479.3355 " fill="none" id="RoomIterator-to-Room" style="stroke:#181818;stroke-width:1.0;"/><polygon fill="#181818" points="841.87,485.07,848.3408,477.6451,843.341,480.2913,840.6948,475.2915,841.87,485.07" style="stroke:#181818;stroke-width:1.0;"/></g><!--link EventManager to EventListener--><g id="link_EventManager_EventListener"><path codeLine="113" d="M1706.9,575.06 C1736.91,614.34 1793.3976,688.2921 1823.4276,727.6021 " fill="none" id="EventManager-to-EventListener" style="stroke:#181818;stroke-width:1.0;"/><polygon fill="#181818" points="1827.07,732.37,1824.7851,722.7899,1824.0347,728.3967,1818.4278,727.6463,1827.07,732.37" style="stroke:#181818;stroke-width:1.0;"/></g><!--link EventManager to GameEvent--><g id="link_EventManager_GameEvent"><path codeLine="114" d="M1689,575.06 C1689,614.34 1689,687.06 1689,726.37 " fill="none" id="EventManager-to-GameEvent" style="stroke:#181818;stroke-width:1.0;"/><polygon fill="#181818" points="1689,732.37,1693,723.37,1689,727.37,1685,723.37,1689,732.37" style="stroke:#181818;stroke-width:1.0;"/></g><!--link ScoreListener to EventListener--><g id="link_ScoreListener_EventListener"><path codeLine="115" d="M1850.31,575.06 C1849.16,614.34 1847.3664,675.0677 1846.2164,714.3777 " fill="none" id="ScoreListener-to-EventListener" style="stroke:#181818;stroke-width:1.0;stroke-dasharray:7.0,7.0;"/><polygon fill="none" points="1845.69,732.37,1852.2138,714.5532,1840.2189,714.2022,1845.69,732.37" style="stroke:#181818;stroke-width:1.0;"/></g><!--SRC=[VLHBRjim4Dth5BEh2ySvW10OS6qdC103GLoWQrQUA4GiKYNfr4PYe8Ve2NkI3ZyIITd9HYBV36VUVB_0_7wssS1YDRjxdAtXtv-_iDYB6gM0vQ7TIOMgA5fMlR0QeQ8hl1K0rOvf3NUimRaK1W_6eG0JQ7ViYAg41_SFOBLN2eLvbB8fmNu3hgt14hWm0S1NKbipGSx8nZAvEOKnr6XMGXicAXnzBLC6GK6ZyQv7_aTAhv9letGUkOpi9ogSYYmoU3lrzxbi6YQs3qfMgBLKgSpgtikQE0xHMxx3G7yesXXcS8qDCP5MTef99eWRZjgbbFtKHh7AXATBAplsoHPagOIDKLpK0Nf6jZFFCQTZCEm55wmXqoC2BuRhKzMRvS8cNgfZ2Qlks1NervwtBMv_86kb8Bd1PY2QgKQgH386PWp5DlBaBn9O2cnYM3PaWpMvT_WcN8CrF62rDzYXPtLsPYbIL4-imjn4S95G8k4LN3JXcStgMb79-IicDBneWKyeCabIHKxXwsHMR3e-gvivjkYJzfrEtJ39ttOEV2qJKjIEhTJa8YGvk4Xg5Pr-s_FTriqFYdqJFIHS6zOcJErGVCPqYxfIl3NSrZ-Ju84RNSAQjJSBhh2oAbVEthJhB9kL4kwvDZUMIOUZhKCezmUXXhKHET9xIhjK6NXBi-8puABjQMG3PjEKrcQmPvBUiG9BblYfR7wTf4SsTe_rUkGgtOoJoRJRXaFOnJG4CpPk4Lbqk86Y9Ds16UYNKeubAoaNf0kfACxstT1H4LR6PF8-3Lkfy4ES8htID6dE5BJjspsR3gRzVFBW-lfzg7KsX9UKYjvxT9lDK8IJaObWuMQYl_Ottw_zrHrAFmP5rhW-AwxSGpp0QKT7j4YR8NP7tsfdujYRMK-6fAHl_mC0]--></g></svg>