<?xml version="1.0" encoding="us-ascii" standalone="no"?><svg xmlns="http://www.w3.org/2000/svg" xmlns:xlink="http://www.w3.org/1999/xlink" contentStyleType="text/css" height="841px" preserveAspectRatio="none" style="width:2040px;height:841px;background:#FFFFFF;" version="1.1" viewBox="0 0 2040 841" width="2040px" zoomAndPan="magnify"><defs/><g><text fill="#000000" font-family="sans-serif" font-size="14" font-weight="bold" lengthAdjust="spacing" textLength="296" x="865.18" y="23.5352">Dungeon Explorer - Component Diagram</text><!--cluster Core--><g id="cluster_Core"><path d="M780.36,43.4883 L814.36,43.4883 A3.75,3.75 0 0 1 816.86,45.9883 L823.86,65.9766 L1387.36,65.9766 A2.5,2.5 0 0 1 1389.86,68.4766 L1389.86,482.3883 A2.5,2.5 0 0 1 1387.36,484.8883 L780.36,484.8883 A2.5,2.5 0 0 1 777.86,482.3883 L777.86,45.9883 A2.5,2.5 0 0 1 780.36,43.4883 " fill="none" style="stroke:#000000;stroke-width:1.5;"/><line style="stroke:#000000;stroke-width:1.5;" x1="777.86" x2="823.86" y1="65.9766" y2="65.9766"/><text fill="#000000" font-family="sans-serif" font-size="14" font-weight="bold" lengthAdjust="spacing" textLength="33" x="781.86" y="59.0234">Core</text></g><!--cluster Map--><g id="cluster_Map"><path d="M39.36,387.3983 L70.36,387.3983 A3.75,3.75 0 0 1 72.86,389.8983 L79.86,409.8866 L597.36,409.8866 A2.5,2.5 0 0 1 599.86,412.3866 L599.86,710.3583 A2.5,2.5 0 0 1 597.36,712.8583 L39.36,712.8583 A2.5,2.5 0 0 1 36.86,710.3583 L36.86,389.8983 A2.5,2.5 0 0 1 39.36,387.3983 " fill="none" style="stroke:#000000;stroke-width:1.5;"/><line style="stroke:#000000;stroke-width:1.5;" x1="36.86" x2="79.86" y1="409.8866" y2="409.8866"/><text fill="#000000" font-family="sans-serif" font-size="14" font-weight="bold" lengthAdjust="spacing" textLength="30" x="40.86" y="402.9334">Map</text></g><!--cluster Entities--><g id="cluster_Entities"><path d="M626.36,508.8883 L682.36,508.8883 A3.75,3.75 0 0 1 684.86,511.3883 L691.86,531.3766 L1116.36,531.3766 A2.5,2.5 0 0 1 1118.86,533.8766 L1118.86,710.3583 A2.5,2.5 0 0 1 1116.36,712.8583 L626.36,712.8583 A2.5,2.5 0 0 1 623.86,710.3583 L623.86,511.3883 A2.5,2.5 0 0 1 626.36,508.8883 " fill="none" style="stroke:#000000;stroke-width:1.5;"/><line style="stroke:#000000;stroke-width:1.5;" x1="623.86" x2="691.86" y1="531.3766" y2="531.3766"/><text fill="#000000" font-family="sans-serif" font-size="14" font-weight="bold" lengthAdjust="spacing" textLength="55" x="627.86" y="524.4234">Entities</text></g><!--cluster Items--><g id="cluster_Items"><path d="M128.36,265.9083 L170.36,265.9083 A3.75,3.75 0 0 1 172.86,268.4083 L179.86,288.3966 L621.36,288.3966 A2.5,2.5 0 0 1 623.86,290.8966 L623.86,360.8983 A2.5,2.5 0 0 1 621.36,363.3983 L128.36,363.3983 A2.5,2.5 0 0 1 125.86,360.8983 L125.86,268.4083 A2.5,2.5 0 0 1 128.36,265.9083 " fill="none" style="stroke:#000000;stroke-width:1.5;"/><line style="stroke:#000000;stroke-width:1.5;" x1="125.86" x2="179.86" y1="288.3966" y2="288.3966"/><text fill="#000000" font-family="sans-serif" font-size="14" font-weight="bold" lengthAdjust="spacing" textLength="41" x="129.86" y="281.4434">Items</text></g><!--cluster Events--><g id="cluster_Events"><path d="M1145.36,508.8883 L1193.36,508.8883 A3.75,3.75 0 0 1 1195.86,511.3883 L1202.86,531.3766 L1632.36,531.3766 A2.5,2.5 0 0 1 1634.86,533.8766 L1634.86,710.3583 A2.5,2.5 0 0 1 1632.36,712.8583 L1145.36,712.8583 A2.5,2.5 0 0 1 1142.86,710.3583 L1142.86,511.3883 A2.5,2.5 0 0 1 1145.36,508.8883 " fill="none" style="stroke:#000000;stroke-width:1.5;"/><line style="stroke:#000000;stroke-width:1.5;" x1="1142.86" x2="1202.86" y1="531.3766" y2="531.3766"/><text fill="#000000" font-family="sans-serif" font-size="14" font-weight="bold" lengthAdjust="spacing" textLength="47" x="1146.86" y="524.4234">Events</text></g><!--cluster IO--><g id="cluster_IO"><path d="M918.36,736.8583 L936.36,736.8583 A3.75,3.75 0 0 1 938.86,739.3583 L945.86,759.3466 L1246.36,759.3466 A2.5,2.5 0 0 1 1248.86,761.8466 L1248.86,831.8483 A2.5,2.5 0 0 1 1246.36,834.3483 L918.36,834.3483 A2.5,2.5 0 0 1 915.86,831.8483 L915.86,739.3583 A2.5,2.5 0 0 1 918.36,736.8583 " fill="none" style="stroke:#000000;stroke-width:1.5;"/><line style="stroke:#000000;stroke-width:1.5;" x1="915.86" x2="945.86" y1="759.3466" y2="759.3466"/><text fill="#000000" font-family="sans-serif" font-size="14" font-weight="bold" lengthAdjust="spacing" textLength="17" x="919.86" y="752.3934">IO</text></g><!--cluster Config & Logging--><g id="cluster_Config &amp; Logging"><path d="M1714.36,43.4883 L1841.36,43.4883 A3.75,3.75 0 0 1 1843.86,45.9883 L1850.86,65.9766 L1895.36,65.9766 A2.5,2.5 0 0 1 1897.86,68.4766 L1897.86,360.8983 A2.5,2.5 0 0 1 1895.36,363.3983 L1714.36,363.3983 A2.5,2.5 0 0 1 1711.86,360.8983 L1711.86,45.9883 A2.5,2.5 0 0 1 1714.36,43.4883 " fill="none" style="stroke:#000000;stroke-width:1.5;"/><line style="stroke:#000000;stroke-width:1.5;" x1="1711.86" x2="1850.86" y1="65.9766" y2="65.9766"/><text fill="#000000" font-family="sans-serif" font-size="14" font-weight="bold" lengthAdjust="spacing" textLength="126" x="1715.86" y="59.0234">Config &amp; Logging</text></g><!--entity Game--><g id="elem_Game"><rect fill="#F1F1F1" height="46.4883" rx="2.5" ry="2.5" style="stroke:#181818;stroke-width:0.5;" width="79" x="1016.36" y="78.4883"/><rect fill="#F1F1F1" height="10" style="stroke:#181818;stroke-width:0.5;" width="15" x="1075.36" y="83.4883"/><rect fill="#F1F1F1" height="2" style="stroke:#181818;stroke-width:0.5;" width="4" x="1073.36" y="85.4883"/><rect fill="#F1F1F1" height="2" style="stroke:#181818;stroke-width:0.5;" width="4" x="1073.36" y="89.4883"/><text fill="#000000" font-family="sans-serif" font-size="14" lengthAdjust="spacing" textLength="39" x="1031.36" y="112.0234">Game</text></g><!--entity GameContext--><g id="elem_GameContext"><rect fill="#F1F1F1" height="46.4883" rx="2.5" ry="2.5" style="stroke:#181818;stroke-width:0.5;" width="134" x="795.86" y="300.9083"/><rect fill="#F1F1F1" height="10" style="stroke:#181818;stroke-width:0.5;" width="15" x="909.86" y="305.9083"/><rect fill="#F1F1F1" height="2" style="stroke:#181818;stroke-width:0.5;" width="4" x="907.86" y="307.9083"/><rect fill="#F1F1F1" height="2" style="stroke:#181818;stroke-width:0.5;" width="4" x="907.86" y="311.9083"/><text fill="#000000" font-family="sans-serif" font-size="14" lengthAdjust="spacing" textLength="94" x="810.86" y="334.4434">GameContext</text></g><!--entity DefaultGameInitializer--><g id="elem_DefaultGameInitializer"><rect fill="#F1F1F1" height="46.4883" rx="2.5" ry="2.5" style="stroke:#181818;stroke-width:0.5;" width="192" x="1179.86" y="189.6983"/><rect fill="#F1F1F1" height="10" style="stroke:#181818;stroke-width:0.5;" width="15" x="1351.86" y="194.6983"/><rect fill="#F1F1F1" height="2" style="stroke:#181818;stroke-width:0.5;" width="4" x="1349.86" y="196.6983"/><rect fill="#F1F1F1" height="2" style="stroke:#181818;stroke-width:0.5;" width="4" x="1349.86" y="200.6983"/><text fill="#000000" font-family="sans-serif" font-size="14" lengthAdjust="spacing" textLength="152" x="1194.86" y="223.2334">DefaultGameInitializer</text></g><!--entity CommandProcessor--><g id="elem_CommandProcessor"><rect fill="#F1F1F1" height="46.4883" rx="2.5" ry="2.5" style="stroke:#181818;stroke-width:0.5;" width="178" x="966.86" y="189.6983"/><rect fill="#F1F1F1" height="10" style="stroke:#181818;stroke-width:0.5;" width="15" x="1124.86" y="194.6983"/><rect fill="#F1F1F1" height="2" style="stroke:#181818;stroke-width:0.5;" width="4" x="1122.86" y="196.6983"/><rect fill="#F1F1F1" height="2" style="stroke:#181818;stroke-width:0.5;" width="4" x="1122.86" y="200.6983"/><text fill="#000000" font-family="sans-serif" font-size="14" lengthAdjust="spacing" textLength="138" x="981.86" y="223.2334">CommandProcessor</text></g><!--entity Player--><g id="elem_Player"><rect fill="#F1F1F1" height="46.4883" rx="2.5" ry="2.5" style="stroke:#181818;stroke-width:0.5;" width="81" x="794.36" y="422.3983"/><rect fill="#F1F1F1" height="10" style="stroke:#181818;stroke-width:0.5;" width="15" x="855.36" y="427.3983"/><rect fill="#F1F1F1" height="2" style="stroke:#181818;stroke-width:0.5;" width="4" x="853.36" y="429.3983"/><rect fill="#F1F1F1" height="2" style="stroke:#181818;stroke-width:0.5;" width="4" x="853.36" y="433.3983"/><text fill="#000000" font-family="sans-serif" font-size="14" lengthAdjust="spacing" textLength="41" x="809.36" y="455.9334">Player</text></g><!--entity Room--><g id="elem_Room"><rect fill="#F1F1F1" height="46.4883" rx="2.5" ry="2.5" style="stroke:#181818;stroke-width:0.5;" width="80" x="909.86" y="422.3983"/><rect fill="#F1F1F1" height="10" style="stroke:#181818;stroke-width:0.5;" width="15" x="969.86" y="427.3983"/><rect fill="#F1F1F1" height="2" style="stroke:#181818;stroke-width:0.5;" width="4" x="967.86" y="429.3983"/><rect fill="#F1F1F1" height="2" style="stroke:#181818;stroke-width:0.5;" width="4" x="967.86" y="433.3983"/><text fill="#000000" font-family="sans-serif" font-size="14" lengthAdjust="spacing" textLength="40" x="924.86" y="455.9334">Room</text></g><!--entity EventManager--><g id="elem_EventManager"><rect fill="#F1F1F1" height="46.4883" rx="2.5" ry="2.5" style="stroke:#181818;stroke-width:0.5;" width="137" x="1025.36" y="422.3983"/><rect fill="#F1F1F1" height="10" style="stroke:#181818;stroke-width:0.5;" width="15" x="1142.36" y="427.3983"/><rect fill="#F1F1F1" height="2" style="stroke:#181818;stroke-width:0.5;" width="4" x="1140.36" y="429.3983"/><rect fill="#F1F1F1" height="2" style="stroke:#181818;stroke-width:0.5;" width="4" x="1140.36" y="433.3983"/><text fill="#000000" font-family="sans-serif" font-size="14" lengthAdjust="spacing" textLength="97" x="1040.36" y="455.9334">EventManager</text></g><!--entity GameFileManager--><g id="elem_GameFileManager"><rect fill="#F1F1F1" height="46.4883" rx="2.5" ry="2.5" style="stroke:#181818;stroke-width:0.5;" width="163" x="1210.36" y="300.9083"/><rect fill="#F1F1F1" height="10" style="stroke:#181818;stroke-width:0.5;" width="15" x="1353.36" y="305.9083"/><rect fill="#F1F1F1" height="2" style="stroke:#181818;stroke-width:0.5;" width="4" x="1351.36" y="307.9083"/><rect fill="#F1F1F1" height="2" style="stroke:#181818;stroke-width:0.5;" width="4" x="1351.36" y="311.9083"/><text fill="#000000" font-family="sans-serif" font-size="14" lengthAdjust="spacing" textLength="123" x="1225.36" y="334.4434">GameFileManager</text></g><!--entity InputSanitizer--><g id="elem_InputSanitizer"><rect fill="#F1F1F1" height="46.4883" rx="2.5" ry="2.5" style="stroke:#181818;stroke-width:0.5;" width="136" x="1001.86" y="300.9083"/><rect fill="#F1F1F1" height="10" style="stroke:#181818;stroke-width:0.5;" width="15" x="1117.86" y="305.9083"/><rect fill="#F1F1F1" height="2" style="stroke:#181818;stroke-width:0.5;" width="4" x="1115.86" y="307.9083"/><rect fill="#F1F1F1" height="2" style="stroke:#181818;stroke-width:0.5;" width="4" x="1115.86" y="311.9083"/><text fill="#000000" font-family="sans-serif" font-size="14" lengthAdjust="spacing" textLength="96" x="1016.86" y="334.4434">InputSanitizer</text></g><!--entity GameStateMemento--><g id="elem_GameStateMemento"><rect fill="#F1F1F1" height="46.4883" rx="2.5" ry="2.5" style="stroke:#181818;stroke-width:0.5;" width="177" x="1197.36" y="422.3983"/><rect fill="#F1F1F1" height="10" style="stroke:#181818;stroke-width:0.5;" width="15" x="1354.36" y="427.3983"/><rect fill="#F1F1F1" height="2" style="stroke:#181818;stroke-width:0.5;" width="4" x="1352.36" y="429.3983"/><rect fill="#F1F1F1" height="2" style="stroke:#181818;stroke-width:0.5;" width="4" x="1352.36" y="433.3983"/><text fill="#000000" font-family="sans-serif" font-size="14" lengthAdjust="spacing" textLength="137" x="1212.36" y="455.9334">GameStateMemento</text></g><!--entity Enemy--><g id="elem_Enemy"><rect fill="#F1F1F1" height="46.4883" rx="2.5" ry="2.5" style="stroke:#181818;stroke-width:0.5;" width="85" x="204.36" y="422.3983"/><rect fill="#F1F1F1" height="10" style="stroke:#181818;stroke-width:0.5;" width="15" x="269.36" y="427.3983"/><rect fill="#F1F1F1" height="2" style="stroke:#181818;stroke-width:0.5;" width="4" x="267.36" y="429.3983"/><rect fill="#F1F1F1" height="2" style="stroke:#181818;stroke-width:0.5;" width="4" x="267.36" y="433.3983"/><text fill="#000000" font-family="sans-serif" font-size="14" lengthAdjust="spacing" textLength="45" x="219.36" y="455.9334">Enemy</text></g><!--entity Item--><g id="elem_Item"><rect fill="#F1F1F1" height="46.4883" rx="2.5" ry="2.5" style="stroke:#181818;stroke-width:0.5;" width="70" x="513.86" y="422.3983"/><rect fill="#F1F1F1" height="10" style="stroke:#181818;stroke-width:0.5;" width="15" x="563.86" y="427.3983"/><rect fill="#F1F1F1" height="2" style="stroke:#181818;stroke-width:0.5;" width="4" x="561.86" y="429.3983"/><rect fill="#F1F1F1" height="2" style="stroke:#181818;stroke-width:0.5;" width="4" x="561.86" y="433.3983"/><text fill="#000000" font-family="sans-serif" font-size="14" lengthAdjust="spacing" textLength="30" x="528.86" y="455.9334">Item</text></g><!--entity CompositeRoom--><g id="elem_CompositeRoom"><rect fill="#F1F1F1" height="46.4883" rx="2.5" ry="2.5" style="stroke:#181818;stroke-width:0.5;" width="154" x="324.86" y="422.3983"/><rect fill="#F1F1F1" height="10" style="stroke:#181818;stroke-width:0.5;" width="15" x="458.86" y="427.3983"/><rect fill="#F1F1F1" height="2" style="stroke:#181818;stroke-width:0.5;" width="4" x="456.86" y="429.3983"/><rect fill="#F1F1F1" height="2" style="stroke:#181818;stroke-width:0.5;" width="4" x="456.86" y="433.3983"/><text fill="#000000" font-family="sans-serif" font-size="14" lengthAdjust="spacing" textLength="114" x="339.86" y="455.9334">CompositeRoom</text></g><!--entity MapLoader--><g id="elem_MapLoader"><rect fill="#F1F1F1" height="46.4883" rx="2.5" ry="2.5" style="stroke:#181818;stroke-width:0.5;" width="116" x="52.86" y="422.3983"/><rect fill="#F1F1F1" height="10" style="stroke:#181818;stroke-width:0.5;" width="15" x="148.86" y="427.3983"/><rect fill="#F1F1F1" height="2" style="stroke:#181818;stroke-width:0.5;" width="4" x="146.86" y="429.3983"/><rect fill="#F1F1F1" height="2" style="stroke:#181818;stroke-width:0.5;" width="4" x="146.86" y="433.3983"/><text fill="#000000" font-family="sans-serif" font-size="14" lengthAdjust="spacing" textLength="76" x="67.86" y="455.9334">MapLoader</text></g><!--entity EnemyFactory--><g id="elem_EnemyFactory"><rect fill="#F1F1F1" height="46.4883" rx="2.5" ry="2.5" style="stroke:#181818;stroke-width:0.5;" width="135" x="397.36" y="543.8883"/><rect fill="#F1F1F1" height="10" style="stroke:#181818;stroke-width:0.5;" width="15" x="512.36" y="548.8883"/><rect fill="#F1F1F1" height="2" style="stroke:#181818;stroke-width:0.5;" width="4" x="510.36" y="550.8883"/><rect fill="#F1F1F1" height="2" style="stroke:#181818;stroke-width:0.5;" width="4" x="510.36" y="554.8883"/><text fill="#000000" font-family="sans-serif" font-size="14" lengthAdjust="spacing" textLength="95" x="412.36" y="577.4234">EnemyFactory</text></g><!--entity ItemFactory--><g id="elem_ItemFactory"><rect fill="#F1F1F1" height="46.4883" rx="2.5" ry="2.5" style="stroke:#181818;stroke-width:0.5;" width="120" x="52.86" y="543.8883"/><rect fill="#F1F1F1" height="10" style="stroke:#181818;stroke-width:0.5;" width="15" x="152.86" y="548.8883"/><rect fill="#F1F1F1" height="2" style="stroke:#181818;stroke-width:0.5;" width="4" x="150.86" y="550.8883"/><rect fill="#F1F1F1" height="2" style="stroke:#181818;stroke-width:0.5;" width="4" x="150.86" y="554.8883"/><text fill="#000000" font-family="sans-serif" font-size="14" lengthAdjust="spacing" textLength="80" x="67.86" y="577.4234">ItemFactory</text></g><!--entity ReflectionLoader--><g id="elem_ReflectionLoader"><rect fill="#F1F1F1" height="46.4883" rx="2.5" ry="2.5" style="stroke:#181818;stroke-width:0.5;" width="155" x="330.36" y="650.3683"/><rect fill="#F1F1F1" height="10" style="stroke:#181818;stroke-width:0.5;" width="15" x="465.36" y="655.3683"/><rect fill="#F1F1F1" height="2" style="stroke:#181818;stroke-width:0.5;" width="4" x="463.36" y="657.3683"/><rect fill="#F1F1F1" height="2" style="stroke:#181818;stroke-width:0.5;" width="4" x="463.36" y="661.3683"/><text fill="#000000" font-family="sans-serif" font-size="14" lengthAdjust="spacing" textLength="115" x="345.36" y="683.9034">ReflectionLoader</text></g><!--entity EnemyStrategy--><g id="elem_EnemyStrategy"><rect fill="#F1F1F1" height="46.4883" rx="2.5" ry="2.5" style="stroke:#181818;stroke-width:0.5;" width="141" x="639.36" y="543.8883"/><rect fill="#F1F1F1" height="10" style="stroke:#181818;stroke-width:0.5;" width="15" x="760.36" y="548.8883"/><rect fill="#F1F1F1" height="2" style="stroke:#181818;stroke-width:0.5;" width="4" x="758.36" y="550.8883"/><rect fill="#F1F1F1" height="2" style="stroke:#181818;stroke-width:0.5;" width="4" x="758.36" y="554.8883"/><text fill="#000000" font-family="sans-serif" font-size="14" lengthAdjust="spacing" textLength="101" x="654.36" y="577.4234">EnemyStrategy</text></g><!--entity EnemyTemplate--><g id="elem_EnemyTemplate"><rect fill="#F1F1F1" height="46.4883" rx="2.5" ry="2.5" style="stroke:#181818;stroke-width:0.5;" width="149" x="815.36" y="543.8883"/><rect fill="#F1F1F1" height="10" style="stroke:#181818;stroke-width:0.5;" width="15" x="944.36" y="548.8883"/><rect fill="#F1F1F1" height="2" style="stroke:#181818;stroke-width:0.5;" width="4" x="942.36" y="550.8883"/><rect fill="#F1F1F1" height="2" style="stroke:#181818;stroke-width:0.5;" width="4" x="942.36" y="554.8883"/><text fill="#000000" font-family="sans-serif" font-size="14" lengthAdjust="spacing" textLength="109" x="830.36" y="577.4234">EnemyTemplate</text></g><!--entity AggressiveStrategy--><g id="elem_AggressiveStrategy"><rect fill="#F1F1F1" height="46.4883" rx="2.5" ry="2.5" style="stroke:#181818;stroke-width:0.5;" width="171" x="687.36" y="650.3683"/><rect fill="#F1F1F1" height="10" style="stroke:#181818;stroke-width:0.5;" width="15" x="838.36" y="655.3683"/><rect fill="#F1F1F1" height="2" style="stroke:#181818;stroke-width:0.5;" width="4" x="836.36" y="657.3683"/><rect fill="#F1F1F1" height="2" style="stroke:#181818;stroke-width:0.5;" width="4" x="836.36" y="661.3683"/><text fill="#000000" font-family="sans-serif" font-size="14" lengthAdjust="spacing" textLength="131" x="702.36" y="683.9034">AggressiveStrategy</text></g><!--entity DefensiveStrategy--><g id="elem_DefensiveStrategy"><rect fill="#F1F1F1" height="46.4883" rx="2.5" ry="2.5" style="stroke:#181818;stroke-width:0.5;" width="162" x="893.86" y="650.3683"/><rect fill="#F1F1F1" height="10" style="stroke:#181818;stroke-width:0.5;" width="15" x="1035.86" y="655.3683"/><rect fill="#F1F1F1" height="2" style="stroke:#181818;stroke-width:0.5;" width="4" x="1033.86" y="657.3683"/><rect fill="#F1F1F1" height="2" style="stroke:#181818;stroke-width:0.5;" width="4" x="1033.86" y="661.3683"/><text fill="#000000" font-family="sans-serif" font-size="14" lengthAdjust="spacing" textLength="122" x="908.86" y="683.9034">DefensiveStrategy</text></g><!--entity Inventory--><g id="elem_Inventory"><rect fill="#F1F1F1" height="46.4883" rx="2.5" ry="2.5" style="stroke:#181818;stroke-width:0.5;" width="104" x="998.86" y="543.8883"/><rect fill="#F1F1F1" height="10" style="stroke:#181818;stroke-width:0.5;" width="15" x="1082.86" y="548.8883"/><rect fill="#F1F1F1" height="2" style="stroke:#181818;stroke-width:0.5;" width="4" x="1080.86" y="550.8883"/><rect fill="#F1F1F1" height="2" style="stroke:#181818;stroke-width:0.5;" width="4" x="1080.86" y="554.8883"/><text fill="#000000" font-family="sans-serif" font-size="14" lengthAdjust="spacing" textLength="64" x="1013.86" y="577.4234">Inventory</text></g><!--entity ItemTemplate--><g id="elem_ItemTemplate"><rect fill="#F1F1F1" height="46.4883" rx="2.5" ry="2.5" style="stroke:#181818;stroke-width:0.5;" width="134" x="141.86" y="300.9083"/><rect fill="#F1F1F1" height="10" style="stroke:#181818;stroke-width:0.5;" width="15" x="255.86" y="305.9083"/><rect fill="#F1F1F1" height="2" style="stroke:#181818;stroke-width:0.5;" width="4" x="253.86" y="307.9083"/><rect fill="#F1F1F1" height="2" style="stroke:#181818;stroke-width:0.5;" width="4" x="253.86" y="311.9083"/><text fill="#000000" font-family="sans-serif" font-size="14" lengthAdjust="spacing" textLength="94" x="156.86" y="334.4434">ItemTemplate</text></g><!--entity CompositeItem--><g id="elem_CompositeItem"><rect fill="#F1F1F1" height="46.4883" rx="2.5" ry="2.5" style="stroke:#181818;stroke-width:0.5;" width="144" x="310.86" y="300.9083"/><rect fill="#F1F1F1" height="10" style="stroke:#181818;stroke-width:0.5;" width="15" x="434.86" y="305.9083"/><rect fill="#F1F1F1" height="2" style="stroke:#181818;stroke-width:0.5;" width="4" x="432.86" y="307.9083"/><rect fill="#F1F1F1" height="2" style="stroke:#181818;stroke-width:0.5;" width="4" x="432.86" y="311.9083"/><text fill="#000000" font-family="sans-serif" font-size="14" lengthAdjust="spacing" textLength="104" x="325.86" y="334.4434">CompositeItem</text></g><!--entity ItemBuilder--><g id="elem_ItemBuilder"><rect fill="#F1F1F1" height="46.4883" rx="2.5" ry="2.5" style="stroke:#181818;stroke-width:0.5;" width="118" x="489.86" y="300.9083"/><rect fill="#F1F1F1" height="10" style="stroke:#181818;stroke-width:0.5;" width="15" x="587.86" y="305.9083"/><rect fill="#F1F1F1" height="2" style="stroke:#181818;stroke-width:0.5;" width="4" x="585.86" y="307.9083"/><rect fill="#F1F1F1" height="2" style="stroke:#181818;stroke-width:0.5;" width="4" x="585.86" y="311.9083"/><text fill="#000000" font-family="sans-serif" font-size="14" lengthAdjust="spacing" textLength="78" x="504.86" y="334.4434">ItemBuilder</text></g><!--entity EventListener--><g id="elem_EventListener"><rect fill="#F1F1F1" height="46.4883" rx="2.5" ry="2.5" style="stroke:#181818;stroke-width:0.5;" width="131" x="1158.36" y="543.8883"/><rect fill="#F1F1F1" height="10" style="stroke:#181818;stroke-width:0.5;" width="15" x="1269.36" y="548.8883"/><rect fill="#F1F1F1" height="2" style="stroke:#181818;stroke-width:0.5;" width="4" x="1267.36" y="550.8883"/><rect fill="#F1F1F1" height="2" style="stroke:#181818;stroke-width:0.5;" width="4" x="1267.36" y="554.8883"/><text fill="#000000" font-family="sans-serif" font-size="14" lengthAdjust="spacing" textLength="91" x="1173.36" y="577.4234">EventListener</text></g><!--entity GameEvent--><g id="elem_GameEvent"><rect fill="#F1F1F1" height="46.4883" rx="2.5" ry="2.5" style="stroke:#181818;stroke-width:0.5;" width="116" x="1496.86" y="650.3683"/><rect fill="#F1F1F1" height="10" style="stroke:#181818;stroke-width:0.5;" width="15" x="1592.86" y="655.3683"/><rect fill="#F1F1F1" height="2" style="stroke:#181818;stroke-width:0.5;" width="4" x="1590.86" y="657.3683"/><rect fill="#F1F1F1" height="2" style="stroke:#181818;stroke-width:0.5;" width="4" x="1590.86" y="661.3683"/><text fill="#000000" font-family="sans-serif" font-size="14" lengthAdjust="spacing" textLength="76" x="1511.86" y="683.9034">GameEvent</text></g><!--entity ScoreListener--><g id="elem_ScoreListener"><rect fill="#F1F1F1" height="46.4883" rx="2.5" ry="2.5" style="stroke:#181818;stroke-width:0.5;" width="132" x="1323.86" y="543.8883"/><rect fill="#F1F1F1" height="10" style="stroke:#181818;stroke-width:0.5;" width="15" x="1435.86" y="548.8883"/><rect fill="#F1F1F1" height="2" style="stroke:#181818;stroke-width:0.5;" width="4" x="1433.86" y="550.8883"/><rect fill="#F1F1F1" height="2" style="stroke:#181818;stroke-width:0.5;" width="4" x="1433.86" y="554.8883"/><text fill="#000000" font-family="sans-serif" font-size="14" lengthAdjust="spacing" textLength="92" x="1338.86" y="577.4234">ScoreListener</text></g><!--entity DropListener--><g id="elem_DropListener"><rect fill="#F1F1F1" height="46.4883" rx="2.5" ry="2.5" style="stroke:#181818;stroke-width:0.5;" width="128" x="1490.86" y="543.8883"/><rect fill="#F1F1F1" height="10" style="stroke:#181818;stroke-width:0.5;" width="15" x="1598.86" y="548.8883"/><rect fill="#F1F1F1" height="2" style="stroke:#181818;stroke-width:0.5;" width="4" x="1596.86" y="550.8883"/><rect fill="#F1F1F1" height="2" style="stroke:#181818;stroke-width:0.5;" width="4" x="1596.86" y="554.8883"/><text fill="#000000" font-family="sans-serif" font-size="14" lengthAdjust="spacing" textLength="88" x="1505.86" y="577.4234">DropListener</text></g><!--entity GameException--><g id="elem_GameException"><rect fill="#F1F1F1" height="46.4883" rx="2.5" ry="2.5" style="stroke:#181818;stroke-width:0.5;" width="147" x="1085.36" y="771.8583"/><rect fill="#F1F1F1" height="10" style="stroke:#181818;stroke-width:0.5;" width="15" x="1212.36" y="776.8583"/><rect fill="#F1F1F1" height="2" style="stroke:#181818;stroke-width:0.5;" width="4" x="1210.36" y="778.8583"/><rect fill="#F1F1F1" height="2" style="stroke:#181818;stroke-width:0.5;" width="4" x="1210.36" y="782.8583"/><text fill="#000000" font-family="sans-serif" font-size="14" lengthAdjust="spacing" textLength="107" x="1100.36" y="805.3934">GameException</text></g><!--entity @AutoLoad--><g id="elem_@AutoLoad"><rect fill="#F1F1F1" height="46.4883" rx="2.5" ry="2.5" style="stroke:#181818;stroke-width:0.5;" width="118" x="931.86" y="771.8583"/><rect fill="#F1F1F1" height="10" style="stroke:#181818;stroke-width:0.5;" width="15" x="1029.86" y="776.8583"/><rect fill="#F1F1F1" height="2" style="stroke:#181818;stroke-width:0.5;" width="4" x="1027.86" y="778.8583"/><rect fill="#F1F1F1" height="2" style="stroke:#181818;stroke-width:0.5;" width="4" x="1027.86" y="782.8583"/><text fill="#000000" font-family="sans-serif" font-size="14" lengthAdjust="spacing" textLength="78" x="946.86" y="805.3934">@AutoLoad</text></g><!--entity GameLogger--><g id="elem_GameLogger"><rect fill="#F1F1F1" height="46.4883" rx="2.5" ry="2.5" style="stroke:#181818;stroke-width:0.5;" width="127" x="1741.36" y="78.4883"/><rect fill="#F1F1F1" height="10" style="stroke:#181818;stroke-width:0.5;" width="15" x="1848.36" y="83.4883"/><rect fill="#F1F1F1" height="2" style="stroke:#181818;stroke-width:0.5;" width="4" x="1846.36" y="85.4883"/><rect fill="#F1F1F1" height="2" style="stroke:#181818;stroke-width:0.5;" width="4" x="1846.36" y="89.4883"/><text fill="#000000" font-family="sans-serif" font-size="14" lengthAdjust="spacing" textLength="87" x="1756.36" y="112.0234">GameLogger</text></g><!--entity GameConfig--><g id="elem_GameConfig"><rect fill="#F1F1F1" height="46.4883" rx="2.5" ry="2.5" style="stroke:#181818;stroke-width:0.5;" width="125" x="1742.36" y="189.6983"/><rect fill="#F1F1F1" height="10" style="stroke:#181818;stroke-width:0.5;" width="15" x="1847.36" y="194.6983"/><rect fill="#F1F1F1" height="2" style="stroke:#181818;stroke-width:0.5;" width="4" x="1845.36" y="196.6983"/><rect fill="#F1F1F1" height="2" style="stroke:#181818;stroke-width:0.5;" width="4" x="1845.36" y="200.6983"/><text fill="#000000" font-family="sans-serif" font-size="14" lengthAdjust="spacing" textLength="85" x="1757.36" y="223.2334">GameConfig</text></g><!--entity game.properties--><g id="elem_game.properties"><rect fill="#F1F1F1" height="46.4883" rx="2.5" ry="2.5" style="stroke:#181818;stroke-width:0.5;" width="153" x="1728.36" y="300.9083"/><rect fill="#F1F1F1" height="10" style="stroke:#181818;stroke-width:0.5;" width="15" x="1861.36" y="305.9083"/><rect fill="#F1F1F1" height="2" style="stroke:#181818;stroke-width:0.5;" width="4" x="1859.36" y="307.9083"/><rect fill="#F1F1F1" height="2" style="stroke:#181818;stroke-width:0.5;" width="4" x="1859.36" y="311.9083"/><text fill="#000000" font-family="sans-serif" font-size="14" lengthAdjust="spacing" textLength="113" x="1743.36" y="334.4434">game.properties</text></g><!--entity Security--><g id="elem_Security"><path d="M1503.86,81.9883 L1573.86,81.9883 A3.75,3.75 0 0 1 1576.36,84.4883 L1583.36,104.4766 L1597.86,104.4766 A2.5,2.5 0 0 1 1600.36,106.9766 L1600.36,118.9766 A2.5,2.5 0 0 1 1597.86,121.4766 L1503.86,121.4766 A2.5,2.5 0 0 1 1501.36,118.9766 L1501.36,84.4883 A2.5,2.5 0 0 1 1503.86,81.9883 " fill="#F1F1F1" style="stroke:#181818;stroke-width:0.5;"/><line style="stroke:#181818;stroke-width:0.5;" x1="1501.36" x2="1583.36" y1="104.4766" y2="104.4766"/><text fill="#000000" font-family="sans-serif" font-size="14" font-weight="bold" lengthAdjust="spacing" textLength="57" x="1511.36" y="98.5234">Security</text></g><g id="elem_GMN81"><path d="M1796.36,653.3083 L1796.36,693.9294 L2033.36,693.9294 L2033.36,663.3083 L2023.36,653.3083 L1796.36,653.3083 " fill="#FEFFDD" style="stroke:#181818;stroke-width:0.5;"/><path d="M2023.36,653.3083 L2023.36,663.3083 L2033.36,663.3083 L2023.36,653.3083 " fill="#FEFFDD" style="stroke:#181818;stroke-width:1.0;"/><text fill="#000000" font-family="sans-serif" font-size="13" lengthAdjust="spacing" textLength="216" x="1802.36" y="670.8766">Usa reflection per istanziare classi</text><text fill="#000000" font-family="sans-serif" font-size="13" lengthAdjust="spacing" textLength="175" x="1802.36" y="686.1872">annotate con &#171;@AutoLoad&#187;.</text></g><g id="elem_GMN84"><path d="M1407.86,303.8383 L1407.86,344.4594 L1693.86,344.4594 L1693.86,313.8383 L1683.86,303.8383 L1407.86,303.8383 " fill="#FEFFDD" style="stroke:#181818;stroke-width:0.5;"/><path d="M1683.86,303.8383 L1683.86,313.8383 L1693.86,313.8383 L1683.86,303.8383 " fill="#FEFFDD" style="stroke:#181818;stroke-width:1.0;"/><text fill="#000000" font-family="sans-serif" font-size="13" lengthAdjust="spacing" textLength="263" x="1413.86" y="321.4066">Singleton che conserva lo stato del gioco:</text><text fill="#000000" font-family="sans-serif" font-size="13" lengthAdjust="spacing" textLength="265" x="1413.86" y="336.7172">player, stanza corrente, punteggio, eventi.</text></g><g id="elem_GMN87"><path d="M1406.86,184.9783 L1406.86,240.9099 L1614.86,240.9099 L1614.86,194.9783 L1604.86,184.9783 L1406.86,184.9783 " fill="#FEFFDD" style="stroke:#181818;stroke-width:0.5;"/><path d="M1604.86,184.9783 L1604.86,194.9783 L1614.86,194.9783 L1604.86,184.9783 " fill="#FEFFDD" style="stroke:#181818;stroke-width:1.0;"/><text fill="#000000" font-family="sans-serif" font-size="13" lengthAdjust="spacing" textLength="187" x="1412.86" y="202.5466">Gestisce l'input del giocatore,</text><text fill="#000000" font-family="sans-serif" font-size="13" lengthAdjust="spacing" textLength="180" x="1412.86" y="217.8572">esegue i comandi e coordina</text><text fill="#000000" font-family="sans-serif" font-size="13" lengthAdjust="spacing" textLength="171" x="1412.86" y="233.1677">interazioni tra componenti.</text></g><!--link Game to GameContext--><g id="link_Game_GameContext"><path d="M1020.86,125.2083 C998.88,140.3983 970.82,161.8483 949.86,184.9783 C916.92,221.3083 891.5117,266.3013 876.7117,295.1113 " fill="none" id="Game-to-GameContext" style="stroke:#181818;stroke-width:1.0;"/><polygon fill="#181818" points="873.97,300.4483,881.6405,294.2706,876.2547,296.0008,874.5245,290.615,873.97,300.4483" style="stroke:#181818;stroke-width:1.0;"/></g><!--link Game to DefaultGameInitializer--><g id="link_Game_DefaultGameInitializer"><path d="M1095.7,122.5083 C1133.59,141.3183 1185.1656,166.9207 1224.8556,186.6207 " fill="none" id="Game-to-DefaultGameInitializer" style="stroke:#181818;stroke-width:1.0;"/><polygon fill="#181818" points="1230.23,189.2883,1223.9468,181.704,1225.7513,187.0653,1220.39,188.8699,1230.23,189.2883" style="stroke:#181818;stroke-width:1.0;"/></g><!--link Game to CommandProcessor--><g id="link_Game_CommandProcessor"><path d="M1055.86,125.3583 C1055.86,144.0983 1055.86,164.6083 1055.86,183.3383 " fill="none" id="Game-to-CommandProcessor" style="stroke:#181818;stroke-width:1.0;"/><polygon fill="#181818" points="1055.86,189.3383,1059.86,180.3383,1055.86,184.3383,1051.86,180.3383,1055.86,189.3383" style="stroke:#181818;stroke-width:1.0;"/></g><!--link GameContext to Player--><g id="link_GameContext_Player"><path d="M857.59,347.6283 C852.58,368.9883 846.4694,395.0966 841.4694,416.4266 " fill="none" id="GameContext-to-Player" style="stroke:#181818;stroke-width:1.0;"/><polygon fill="#181818" points="840.1,422.2683,846.0485,414.4187,841.2411,417.4002,838.2596,412.5929,840.1,422.2683" style="stroke:#181818;stroke-width:1.0;"/></g><!--link GameContext to Room--><g id="link_GameContext_Room"><path d="M879.22,347.6283 C894.77,368.9883 914.5084,396.0877 930.0384,417.4177 " fill="none" id="GameContext-to-Room" style="stroke:#181818;stroke-width:1.0;"/><polygon fill="#181818" points="933.57,422.2683,931.5063,412.6381,930.627,418.2262,925.0389,417.3469,933.57,422.2683" style="stroke:#181818;stroke-width:1.0;"/></g><!--link GameContext to EventManager--><g id="link_GameContext_EventManager"><path d="M902.01,347.6783 C918.48,356.2783 938.14,365.4383 956.86,371.3983 C978.3,378.2183 986.14,370.6083 1006.86,379.3983 C1030.67,389.4883 1049.4119,403.4976 1065.8719,418.0276 " fill="none" id="GameContext-to-EventManager" style="stroke:#181818;stroke-width:1.0;"/><polygon fill="#181818" points="1070.37,421.9983,1066.2699,413.0434,1066.6215,418.6893,1060.9756,419.041,1070.37,421.9983" style="stroke:#181818;stroke-width:1.0;"/></g><!--link CommandProcessor to GameContext--><g id="link_CommandProcessor_GameContext"><path d="M999.71,236.6683 C985.47,243.0283 970.38,250.2983 956.86,257.9083 C934.35,270.5683 915.2913,283.6404 897.2313,296.9404 " fill="none" id="CommandProcessor-to-GameContext" style="stroke:#181818;stroke-width:1.0;"/><polygon fill="#181818" points="892.4,300.4983,902.0189,298.3823,896.4261,297.5334,897.275,291.9406,892.4,300.4983" style="stroke:#181818;stroke-width:1.0;"/></g><!--link CommandProcessor to GameFileManager--><g id="link_CommandProcessor_GameFileManager"><path d="M1129.75,236.6383 C1147.43,242.8583 1166.04,250.0683 1182.86,257.9083 C1209.04,270.1183 1231.9197,283.6787 1252.9497,297.1687 " fill="none" id="CommandProcessor-to-GameFileManager" style="stroke:#181818;stroke-width:1.0;"/><polygon fill="#181818" points="1258,300.4083,1252.5843,292.1821,1253.7914,297.7086,1248.2649,298.9158,1258,300.4083" style="stroke:#181818;stroke-width:1.0;"/></g><!--link CommandProcessor to InputSanitizer--><g id="link_CommandProcessor_InputSanitizer"><path d="M1058.76,236.5683 C1061.16,255.3083 1063.7974,275.8669 1066.1974,294.5969 " fill="none" id="CommandProcessor-to-InputSanitizer" style="stroke:#181818;stroke-width:1.0;"/><polygon fill="#181818" points="1066.96,300.5483,1069.7837,291.1129,1066.3245,295.5888,1061.8486,292.1297,1066.96,300.5483" style="stroke:#181818;stroke-width:1.0;"/></g><!--link CommandProcessor to EventManager--><g id="link_CommandProcessor_EventManager"><path d="M1003.92,236.4583 C995.88,242.2583 988.66,249.3483 983.86,257.9083 C959.18,301.8983 954.63,330.2883 983.86,371.3983 C990.13,380.2183 997.3,374.3083 1006.86,379.3983 C1029.02,391.1883 1047.0195,404.5106 1063.6295,418.2706 " fill="none" id="CommandProcessor-to-EventManager" style="stroke:#181818;stroke-width:1.0;"/><polygon fill="#181818" points="1068.25,422.0983,1063.8711,413.2764,1064.3996,418.9085,1058.7675,419.4371,1068.25,422.0983" style="stroke:#181818;stroke-width:1.0;"/></g><!--link CommandProcessor to GameStateMemento--><g id="link_CommandProcessor_GameStateMemento"><path d="M1128.01,236.6783 C1138.35,242.3483 1148.09,249.3283 1155.86,257.9083 C1191.47,297.2283 1162.49,327.8883 1192.86,371.3983 C1207.09,391.7883 1223.688,405.8951 1242.458,418.6551 " fill="none" id="CommandProcessor-to-GameStateMemento" style="stroke:#181818;stroke-width:1.0;"/><polygon fill="#181818" points="1247.42,422.0283,1242.2258,413.6605,1243.285,419.2173,1237.7282,420.2765,1247.42,422.0283" style="stroke:#181818;stroke-width:1.0;"/></g><!--link Room to Enemy--><g id="link_Room_Enemy"><path d="M935.22,421.9983 C925.07,407.5483 910.27,389.8883 892.86,379.3983 C886.02,375.2783 883.28,376.2883 875.36,375.3983 C844.94,371.9583 354.77,371.9583 324.36,375.3983 C316.43,376.2883 313.74,375.3683 306.86,379.3983 C288.91,389.8983 276.9136,402.7535 266.1136,417.1935 " fill="none" id="Room-to-Enemy" style="stroke:#181818;stroke-width:1.0;"/><polygon fill="#181818" points="262.52,421.9983,271.1136,417.1868,265.5147,417.9943,264.7072,412.3954,262.52,421.9983" style="stroke:#181818;stroke-width:1.0;"/></g><!--link Room to Item--><g id="link_Room_Item"><path d="M935.22,421.9983 C925.07,407.5483 910.27,389.8883 892.86,379.3983 C886.02,375.2783 883.28,376.2883 875.36,375.3983 C767.9,363.2683 649.2896,403.8321 589.7796,427.9821 " fill="none" id="Room-to-Item" style="stroke:#181818;stroke-width:1.0;"/><polygon fill="#181818" points="584.22,430.2383,594.0636,430.5604,588.853,428.3581,591.0553,423.1476,584.22,430.2383" style="stroke:#181818;stroke-width:1.0;"/></g><!--link CompositeRoom to Room--><g id="link_CompositeRoom_Room"><path d="M425.25,422.2183 C446.44,403.3483 479.58,379.3183 514.36,375.3983 C554.21,370.8983 835.5,370.8983 875.36,375.3983 C883.28,376.2883 886.02,375.2783 892.86,379.3983 C910.27,389.8883 921.6212,402.6385 931.7712,417.0885 " fill="none" id="CompositeRoom-to-Room" style="stroke:#181818;stroke-width:1.0;"/><polygon fill="#181818" points="935.22,421.9983,933.3201,412.3344,932.346,417.9068,926.7737,416.9328,935.22,421.9983" style="stroke:#181818;stroke-width:1.0;"/></g><!--link MapLoader to Room--><g id="link_MapLoader_Room"><path d="M131.94,422.0883 C146.11,407.6883 165.95,390.0383 186.86,379.3983 C193.97,375.7783 196.43,376.2883 204.36,375.3983 C241.4,371.2183 838.31,371.2183 875.36,375.3983 C883.28,376.2883 886.02,375.2783 892.86,379.3983 C910.27,389.8883 921.6212,402.6385 931.7712,417.0885 " fill="none" id="MapLoader-to-Room" style="stroke:#181818;stroke-width:1.0;"/><polygon fill="#181818" points="935.22,421.9983,933.3201,412.3344,932.346,417.9068,926.7737,416.9328,935.22,421.9983" style="stroke:#181818;stroke-width:1.0;"/></g><!--link MapLoader to EnemyFactory--><g id="link_MapLoader_EnemyFactory"><path d="M140.27,469.1683 C153.74,478.2183 170.35,487.7083 186.86,492.8883 C242.94,510.4483 261.77,486.8883 318.86,500.8883 C356.34,510.0683 390.8431,525.7379 419.4131,540.6779 " fill="none" id="MapLoader-to-EnemyFactory" style="stroke:#181818;stroke-width:1.0;"/><polygon fill="#181818" points="424.73,543.4583,418.6082,535.7431,420.2992,541.1413,414.9011,542.8324,424.73,543.4583" style="stroke:#181818;stroke-width:1.0;"/></g><!--link MapLoader to ItemFactory--><g id="link_MapLoader_ItemFactory"><path d="M111.23,469.1183 C111.59,490.4783 112.0187,516.4291 112.3787,537.7591 " fill="none" id="MapLoader-to-ItemFactory" style="stroke:#181818;stroke-width:1.0;"/><polygon fill="#181818" points="112.48,543.7583,116.3276,534.6921,112.3956,538.759,108.3287,534.8271,112.48,543.7583" style="stroke:#181818;stroke-width:1.0;"/></g><!--link MapLoader to ReflectionLoader--><g id="link_MapLoader_ReflectionLoader"><path d="M145.5,469.3183 C159.72,478.8383 176.24,490.1683 190.86,500.8883 C260.79,552.1583 335.3611,612.6808 375.9811,646.1808 " fill="none" id="MapLoader-to-ReflectionLoader" style="stroke:#181818;stroke-width:1.0;"/><polygon fill="#181818" points="380.61,649.9983,376.2117,641.1861,376.7526,646.817,371.1217,647.3579,380.61,649.9983" style="stroke:#181818;stroke-width:1.0;"/></g><!--link Enemy to EnemyStrategy--><g id="link_Enemy_EnemyStrategy"><path d="M269,469.1383 C279.52,478.3083 292.86,487.8983 306.86,492.8883 C368.22,514.7283 537.28,482.7983 599.86,500.8883 C629.72,509.5183 654.9463,524.7187 676.0863,539.8987 " fill="none" id="Enemy-to-EnemyStrategy" style="stroke:#181818;stroke-width:1.0;"/><polygon fill="#181818" points="680.96,543.3983,675.9826,534.8997,676.8986,540.4819,671.3164,541.3979,680.96,543.3983" style="stroke:#181818;stroke-width:1.0;"/></g><!--link EnemyFactory to EnemyTemplate--><g id="link_EnemyFactory_EnemyTemplate"><path d="M515.58,543.3883 C546.41,529.6283 586.83,512.7283 623.86,500.8883 C631.45,498.4483 633.43,497.7783 641.36,496.8883 C672.05,493.4183 749.66,493.4183 780.36,496.8883 C814.47,500.7283 842.2657,520.7145 862.7957,539.6145 " fill="none" id="EnemyFactory-to-EnemyTemplate" style="stroke:#181818;stroke-width:1.0;"/><polygon fill="#181818" points="867.21,543.6783,863.2978,534.6398,863.5315,540.2918,857.8794,540.5254,867.21,543.6783" style="stroke:#181818;stroke-width:1.0;"/></g><!--link EnemyTemplate to AggressiveStrategy--><g id="link_EnemyTemplate_AggressiveStrategy"><path d="M864.47,590.7983 C844.84,608.3283 822.2854,628.4719 802.6654,645.9919 " fill="none" id="EnemyTemplate-to-AggressiveStrategy" style="stroke:#181818;stroke-width:1.0;"/><polygon fill="#181818" points="798.19,649.9883,807.5673,646.9773,801.9195,646.658,802.2388,641.0101,798.19,649.9883" style="stroke:#181818;stroke-width:1.0;"/></g><!--link EnemyTemplate to DefensiveStrategy--><g id="link_EnemyTemplate_DefensiveStrategy"><path d="M908.3,590.7983 C922.56,608.3283 938.414,627.8135 952.664,645.3335 " fill="none" id="EnemyTemplate-to-DefensiveStrategy" style="stroke:#181818;stroke-width:1.0;"/><polygon fill="#181818" points="956.45,649.9883,953.8742,640.4822,953.295,646.1093,947.6679,645.5302,956.45,649.9883" style="stroke:#181818;stroke-width:1.0;"/></g><!--link Player to Inventory--><g id="link_Player_Inventory"><path d="M856.83,469.2183 C866.92,478.1583 879.59,487.5583 892.86,492.8883 C929.72,507.6683 945.65,484.5583 981.86,500.8883 C1002.75,510.2983 1017.413,524.1491 1030.003,539.0191 " fill="none" id="Player-to-Inventory" style="stroke:#181818;stroke-width:1.0;"/><polygon fill="#181818" points="1033.88,543.5983,1031.1172,534.1449,1030.6491,539.7823,1025.0117,539.3142,1033.88,543.5983" style="stroke:#181818;stroke-width:1.0;"/></g><!--link ItemFactory to ItemTemplate--><g id="link_ItemFactory_ItemTemplate"><path d="M78.54,543.6183 C62.34,530.8883 44.66,513.3983 35.86,492.8883 C15.97,446.5283 6,420.0483 35.86,379.3983 C59.99,346.5383 98.0292,333.8893 135.6092,328.5693 " fill="none" id="ItemFactory-to-ItemTemplate" style="stroke:#181818;stroke-width:1.0;"/><polygon fill="#181818" points="141.55,327.7283,132.0782,325.0293,136.5994,328.4291,133.1995,332.9503,141.55,327.7283" style="stroke:#181818;stroke-width:1.0;"/></g><!--link ItemFactory to ReflectionLoader--><g id="link_ItemFactory_ReflectionLoader"><path d="M173.27,589.5283 C222.91,607.1083 287.4041,629.9557 338.0441,647.8857 " fill="none" id="ItemFactory-to-ReflectionLoader" style="stroke:#181818;stroke-width:1.0;"/><polygon fill="#181818" points="343.7,649.8883,336.5511,643.1138,338.9867,648.2195,333.881,650.655,343.7,649.8883" style="stroke:#181818;stroke-width:1.0;"/></g><!--link CompositeItem to Item--><g id="link_CompositeItem_Item"><path d="M422.93,347.8083 C438,355.8383 455.46,364.5683 471.86,371.3983 C482.63,375.8783 487.25,372.7683 496.86,379.3983 C512.95,390.4983 523.2372,403.0226 532.4872,417.1126 " fill="none" id="CompositeItem-to-Item" style="stroke:#181818;stroke-width:1.0;"/><polygon fill="#181818" points="535.78,422.1283,534.1846,412.4095,533.036,417.9485,527.497,416.7999,535.78,422.1283" style="stroke:#181818;stroke-width:1.0;"/></g><!--link ItemBuilder to Item--><g id="link_ItemBuilder_Item"><path d="M548.86,347.6283 C548.86,368.9883 548.86,394.9383 548.86,416.2683 " fill="none" id="ItemBuilder-to-Item" style="stroke:#181818;stroke-width:1.0;"/><polygon fill="#181818" points="548.86,422.2683,552.86,413.2683,548.86,417.2683,544.86,413.2683,548.86,422.2683" style="stroke:#181818;stroke-width:1.0;"/></g><!--link Inventory to Item--><g id="link_Inventory_Item"><path d="M1034.3,543.5983 C1021.77,528.5083 1003.13,509.8383 981.86,500.8883 C960.95,492.0883 800.38,495.5783 777.86,492.8883 C708.59,484.5883 634.8587,467.9816 590.0987,457.0516 " fill="none" id="Inventory-to-Item" style="stroke:#181818;stroke-width:1.0;"/><polygon fill="#181818" points="584.27,455.6283,592.0642,461.6491,589.1273,456.8144,593.962,453.8774,584.27,455.6283" style="stroke:#181818;stroke-width:1.0;"/></g><!--link EventManager to EventListener--><g id="link_EventManager_EventListener"><path d="M1118.31,469.1183 C1141.55,490.4783 1171.8931,518.3674 1195.0931,539.6974 " fill="none" id="EventManager-to-EventListener" style="stroke:#181818;stroke-width:1.0;"/><polygon fill="#181818" points="1199.51,543.7583,1195.5919,534.7223,1195.8292,540.3742,1190.1774,540.6115,1199.51,543.7583" style="stroke:#181818;stroke-width:1.0;"/></g><!--link EventManager to GameEvent--><g id="link_EventManager_GameEvent"><path d="M1127.03,469.2783 C1142.39,478.4683 1161.32,488.0383 1179.86,492.8883 C1192.14,496.0883 1627.96,491.8283 1636.86,500.8883 C1664.73,529.2483 1652.05,553.6183 1636.86,590.3683 C1626.84,614.5983 1610.5294,631.6729 1592.2994,646.3029 " fill="none" id="EventManager-to-GameEvent" style="stroke:#181818;stroke-width:1.0;"/><polygon fill="#181818" points="1587.62,650.0583,1597.1427,647.5449,1591.5195,646.9288,1592.1356,641.3056,1587.62,650.0583" style="stroke:#181818;stroke-width:1.0;"/></g><!--link ScoreListener to GameEvent--><g id="link_ScoreListener_GameEvent"><path d="M1425.66,590.7983 C1453.33,608.3283 1486.4018,629.2569 1514.0518,646.7769 " fill="none" id="ScoreListener-to-GameEvent" style="stroke:#181818;stroke-width:1.0;stroke-dasharray:7.0,7.0;"/><polygon fill="#181818" points="1519.12,649.9883,1513.6586,641.7924,1514.8965,647.3121,1509.3767,648.55,1519.12,649.9883" style="stroke:#181818;stroke-width:1.0;"/></g><!--link DropListener to GameEvent--><g id="link_DropListener_GameEvent"><path d="M1554.86,590.7983 C1554.86,608.3283 1554.86,626.4683 1554.86,643.9883 " fill="none" id="DropListener-to-GameEvent" style="stroke:#181818;stroke-width:1.0;stroke-dasharray:7.0,7.0;"/><polygon fill="#181818" points="1554.86,649.9883,1558.86,640.9883,1554.86,644.9883,1550.86,640.9883,1554.86,649.9883" style="stroke:#181818;stroke-width:1.0;"/></g><!--link GameFileManager to GameStateMemento--><g id="link_GameFileManager_GameStateMemento"><path d="M1290.73,347.6283 C1289.65,368.9883 1288.3506,394.9458 1287.2806,416.2758 " fill="none" id="GameFileManager-to-GameStateMemento" style="stroke:#181818;stroke-width:1.0;"/><polygon fill="#181818" points="1286.98,422.2683,1291.4259,413.48,1287.2305,417.2746,1283.4359,413.0792,1286.98,422.2683" style="stroke:#181818;stroke-width:1.0;"/></g><!--link GameFileManager to GameException--><g id="link_GameFileManager_GameException"><path d="M1340.43,347.8883 C1356.48,355.3883 1374.43,363.7583 1390.86,371.3983 C1515.19,429.1883 1597.01,385.3683 1670.86,500.8883 C1692.28,534.3983 1676.19,550.9583 1670.86,590.3683 C1662.78,649.9883 1679.8,680.8683 1634.86,720.8583 C1576.69,772.6183 1357.2058,787.6137 1238.6458,792.0537 " fill="none" id="GameFileManager-to-GameException" style="stroke:#181818;stroke-width:1.0;"/><polygon fill="#181818" points="1232.65,792.2783,1241.7934,795.9387,1237.6465,792.0912,1241.494,787.9443,1232.65,792.2783" style="stroke:#181818;stroke-width:1.0;"/></g><!--link ReflectionLoader to @AutoLoad--><g id="link_ReflectionLoader_@AutoLoad"><path d="M485.78,691.5783 C526.84,700.4383 578.04,711.3883 623.86,720.8583 C732.18,743.2683 852.8521,767.1039 925.4821,781.3439 " fill="none" id="ReflectionLoader-to-@AutoLoad" style="stroke:#181818;stroke-width:1.0;"/><polygon fill="#181818" points="931.37,782.4983,923.3077,776.8414,926.4634,781.5363,921.7686,784.692,931.37,782.4983" style="stroke:#181818;stroke-width:1.0;"/></g><!--link GameLogger to GameConfig--><g id="link_GameLogger_GameConfig"><path d="M1804.86,125.3583 C1804.86,144.0983 1804.86,164.6083 1804.86,183.3383 " fill="none" id="GameLogger-to-GameConfig" style="stroke:#181818;stroke-width:1.0;"/><polygon fill="#181818" points="1804.86,189.3383,1808.86,180.3383,1804.86,184.3383,1800.86,180.3383,1804.86,189.3383" style="stroke:#181818;stroke-width:1.0;"/></g><!--link GameConfig to game.properties--><g id="link_GameConfig_game.properties"><path d="M1804.86,236.5683 C1804.86,255.3083 1804.86,275.8183 1804.86,294.5483 " fill="none" id="GameConfig-to-game.properties" style="stroke:#181818;stroke-width:1.0;"/><polygon fill="#181818" points="1804.86,300.5483,1808.86,291.5483,1804.86,295.5483,1800.86,291.5483,1804.86,300.5483" style="stroke:#181818;stroke-width:1.0;"/></g><!--link ReflectionLoader to GMN81--><g id="link_ReflectionLoader_GMN81"><path d="M485.74,651.2483 C530.78,639.4783 588.78,626.2883 641.36,620.3683 C886.47,592.7783 1507.74,581.7083 1751.36,620.3683 C1790.57,626.5983 1833.17,640.7283 1865.05,652.8683 " fill="none" id="ReflectionLoader-GMN81" style="stroke:#181818;stroke-width:1.0;stroke-dasharray:7.0,7.0;"/></g><!--link GameContext to GMN84--><g id="link_GameContext_GMN84"><path d="M894.69,300.4883 C921.54,282.1983 961.81,258.4983 1001.36,249.4083 C1041.53,240.1683 1331.94,241.2883 1372.36,249.4083 C1423.58,259.6983 1478.43,285.0683 1513.61,303.3983 " fill="none" id="GameContext-GMN84" style="stroke:#181818;stroke-width:1.0;stroke-dasharray:7.0,7.0;"/></g><!--link CommandProcessor to GMN87--><g id="link_CommandProcessor_GMN87"><path d="M1094.86,189.2083 C1118.41,176.2883 1149.53,161.6283 1179.36,154.9783 C1263.08,136.3083 1288.26,138.0883 1372.36,154.9783 C1401.49,160.8283 1432.14,172.9583 1457.18,184.6183 " fill="none" id="CommandProcessor-GMN87" style="stroke:#181818;stroke-width:1.0;stroke-dasharray:7.0,7.0;"/></g><!--SRC=[bLN1RXf13Btp5LOExONm0HL2JGE9a18r2ksfuc0DPZBgx7WqEni5glnxFRkm3Bj0sXDWF_lPpnuJJRG4qyffOWUpDsyvK81hkEN2ioCNOMfG1onWCF2eVgCckBeLq1Ny6G3ykiU2bd1zFMc-thABz1QN7TUKrbZPc2npPw91QxOKkYZXBD2jdW8hAai- -FTP6zYJnGsTSpup5sTSirTfvn6TjD14z_XEzt41TcSi_KF6kVDLN63gV7iP-JyrBY96UgH28dWvUC_cyuX-DvvQZbrgHyLcsJ7E8nLx7i-bYPGvMoqbtmFZYi97ZfhZ3bNai3a9I7oN_C-qjgIYORSp7_KrSr4af7BNNDDHnho8GIJHOXkFZGmmh57HPD9YzynPo0ygl9MWSo47VnrpetMGEPXNQhdEGMNdoVMGk-NTxqKQTwr5tcOIQTzZBjX1mWjLzmFwckRphZUWimpfoxVAsEEvDQwsvDnnDAG4Q4UKxtEsuW-cZEIIhIzxFoHjUsskIrWeEJ-71ADH3p4DxCy3ZgJ-djsn_3MVUsONeRCtHJu9tJophkuDyEjD5JbPKkzIOo2E6v-QVpywiMvjD7o21zRQE9sLcIpKELQ2pQzU-jdujHX6NlIWa5xESVSBKbKmSPCbpreGfED848n-YS3hqvlqiqG8hHs41qHvT5k3WK1PbDSYC7IIIuG49Q3nk1LXCXaDoAqWCVNuEfTu8JfOYf90lTI9IWgl29P122F3YYnemug_2DZN3sq8TIqew11aWZG4Nyc7QCf3eBGGva81f_wHxgcCfbG4zhD9TxsbbH823GL19UcAm0XfYZQGYkMmCWx5MwyxRaKi0t8P4gZvfyqB-Gi0]--></g></svg>